<?xml version="1.0" standalone="no"?>
<!DOCTYPE svg PUBLIC "-//W3C//DTD SVG 1.1//EN" "http://www.w3.org/Graphics/SVG/1.1/DTD/svg11.dtd" >
<svg xmlns="http://www.w3.org/2000/svg">
<metadata>Generated by IcoMoon</metadata>
<defs>
<font id="eFont" horiz-adv-x="1024">
<font-face units-per-em="1024" ascent="960" descent="-64" />
<missing-glyph horiz-adv-x="1024" />
<glyph unicode="&#x20;" horiz-adv-x="512" d="" />
<glyph unicode="&#xe900;" glyph-name="add" d="M1024 374.861h-438.861v-438.861h-146.285v438.861h-438.854v146.285h438.854v438.854h146.278v-438.854h438.867v-146.285z" />
<glyph unicode="&#xe901;" glyph-name="amplification" d="M570.63 569.6h-307.2c-24.198 0-43.878-17.402-43.878-41.6s19.68-41.6 43.878-41.6h307.2c24.198 0 43.885 17.402 43.885 41.6s-19.686 41.6-43.885 41.6zM371.2 681.939v-307.2c0-24.198 20.602-43.885 44.8-43.885s44.8 19.686 44.8 43.885v307.2c0 24.198-20.602 43.878-44.8 43.878s-44.8-19.68-44.8-43.878zM418.906 960c56.73 0 110.976-11.085 162.733-33.274 51.763-22.189 96.307-51.936 133.645-89.274 37.325-37.338 67.078-81.875 89.267-133.638 22.182-51.75 33.267-106.003 33.267-162.726 0-48.71-7.93-95.398-23.821-140-15.878-44.614-38.496-85.088-67.814-121.453l264.365-264c8.966-8.973 13.453-20.013 13.453-33.101 0-13.325-4.41-24.41-13.261-33.274-8.858-8.851-19.949-13.261-33.28-13.261-13.088 0-24.122 4.474-33.094 13.453l-264 264.365c-36.365-29.325-76.845-51.936-121.453-67.814-44.608-15.885-91.283-23.827-140.006-23.827-56.717 0-110.963 11.098-162.72 33.274-51.757 22.189-96.301 51.936-133.638 89.274s-67.091 81.875-89.267 133.638c-22.189 51.763-33.28 106.003-33.28 162.726s11.091 110.976 33.28 162.726c22.176 51.763 51.93 96.301 89.267 133.638s81.882 67.085 133.638 89.274 106.003 33.274 162.72 33.274zM418.906 866.912c-44.122 0-86.304-8.614-126.541-25.824-40.243-17.21-74.912-40.352-104-69.453-29.101-29.088-52.243-63.75-69.453-104-17.21-40.237-25.818-82.426-25.818-126.547 0-44.115 8.608-86.298 25.818-126.547 17.203-40.237 40.352-74.899 69.453-104 29.088-29.075 63.757-52.224 104-69.453 40.237-17.21 82.426-25.811 126.541-25.811 44.128 0 86.304 8.602 126.554 25.811 40.237 17.222 74.899 40.378 103.994 69.453 29.088 29.101 52.237 63.763 69.453 104 17.21 40.25 25.824 82.438 25.824 126.547 0 44.128-8.614 86.31-25.824 126.547-17.21 40.25-40.365 74.912-69.453 104-29.094 29.101-63.757 52.237-103.994 69.453-40.25 17.21-82.426 25.824-126.554 25.824z" />
<glyph unicode="&#xe902;" glyph-name="apps" d="M25.6 217.6h256.006v-256h-256.006v256zM25.6 576h256v-256h-256v256zM384-38.4h256v256h-256v-256zM384 320h256v256h-256v-256zM25.6 934.4h256.006v-256h-256.006v256zM384 678.4h256v256h-256v-256zM742.4 934.4h256v-256h-256v256zM742.4 576h256v-256h-256v256zM742.4 217.6h256v-256h-256v256z" />
<glyph unicode="&#xe903;" glyph-name="block" d="M409.594 0v321.082h204.8v-321.082h255.994v425.6h153.613l-512 470.4-512-470.4h153.6v-425.6h255.994z" />
<glyph unicode="&#xe904;" glyph-name="block-line" d="M851.962-12.8h-280.851v305.741h-118.221v-305.741h-280.851v405.126h-172.038l512 516.474 512-516.474h-172.038v-405.126zM630.266 51.085h162.547v397.581h94.003l-374.816 378.099-374.822-378.099h94.003v-397.574h162.579v298.182h236.506v-298.189z" />
<glyph unicode="&#xe905;" glyph-name="cancel-circle" d="M512-64c-282.784 0-512 229.216-512 512s229.216 512 512 512 512-229.216 512-512-229.216-512-512-512zM746.771 597.306c9.613 9.613 9.613 25.248 0 34.861l-52.307 52.262c-9.606 9.606-25.242 9.606-34.848 0l-148.134-148.128-148.115 148.128c-9.613 9.606-25.248 9.606-34.861 0l-52.301-52.262c-9.613-9.613-9.613-25.248 0-34.861l148.16-148.16-148.16-148.083c-9.613-9.606-9.613-25.254 0-34.861l52.301-52.301c9.606-9.613 25.242-9.613 34.861 0l148.122 148.166 148.128-148.166c9.606-9.613 25.242-9.613 34.848 0l52.307 52.301c9.613 9.606 9.613 25.254 0 34.861l-148.16 148.083 148.16 148.16z" />
<glyph unicode="&#xe906;" glyph-name="cancel-line" d="M512 960c-282.784 0-512-229.216-512-512s229.216-512 512-512 512 229.216 512 512-229.216 512-512 512zM512 53.030c-218.112 0-394.97 176.87-394.97 394.97 0 218.106 176.858 394.97 394.97 394.97 218.144 0 394.97-176.864 394.97-394.97 0-218.099-176.826-394.97-394.97-394.97zM690.694 323.405l-39.942-39.936c-7.322-7.328-19.219-7.328-26.586 0l-113.037 113.030-113.030-113.030c-7.36-7.328-19.219-7.328-26.586 0l-39.93 39.936c-7.334 7.328-7.334 19.213 0 26.579l113.069 112.998-113.069 113.037c-7.334 7.366-7.334 19.264 0 26.624l39.93 39.891c7.366 7.36 19.226 7.36 26.586 0l113.030-113.037 113.030 113.037c7.366 7.36 19.27 7.36 26.586 0l39.942-39.891c7.322-7.36 7.322-19.258 0-26.624l-113.075-113.030 113.082-112.998c7.315-7.373 7.315-19.29 0-26.586z" />
<glyph unicode="&#xe907;" glyph-name="change" d="M336.947-18.835v184.973l687.053 0.326v147.501l-1024-0.326zM687.053 902.4v-184.973l-687.053-0.326v-147.501l1024 0.326z" />
<glyph unicode="&#xe908;" glyph-name="checkmark" d="M1012.646 732.947l-82.189 81.402c-15.187 15.002-39.68 15.002-54.822 0l-492.845-488.128-234.413 233.856c-15.149 15.002-39.648 15.002-54.835 0l-82.189-81.389c-15.142-15.053-15.142-39.315 0-54.298l343.738-342.739c15.142-15.002 39.674-15.002 54.803 0l602.746 596.998c15.149 14.95 15.149 39.302 0.006 54.298z" />
<glyph unicode="&#xe909;" glyph-name="checkmark-circle" d="M511.974 960c-282.771 0-512-229.229-512-512s229.229-512 512-512 512 229.229 512 512-229.229 512-512 512zM741.19 538.624l-289.626-289.632c-7.251-7.258-19.027-7.258-26.317 0l-165.133 166.323c-7.296 7.251-7.296 19.027 0 26.31l39.456 39.507c7.334 7.283 19.066 7.283 26.4 0l112.602-113.517 236.851 236.826c7.251 7.296 19.021 7.296 26.31 0l39.456-39.462c7.328-7.29 7.328-19.072 0-26.355z" />
<glyph unicode="&#xe90a;" glyph-name="checkmark-line" d="M741.21 564.973l-39.456 39.462c-7.296 7.29-19.066 7.29-26.317 0l-236.845-236.826-112.595 113.523c-7.334 7.29-19.066 7.29-26.4 0l-39.456-39.514c-7.296-7.29-7.296-19.059 0-26.304l165.139-166.317c7.29-7.258 19.059-7.258 26.304 0l289.632 289.626c7.328 7.283 7.328 19.066-0.006 26.349zM512 960c-282.778 0-512-229.222-512-512s229.222-512 512-512 512 229.222 512 512-229.222 512-512 512zM512 53.030c-218.138 0-394.97 176.832-394.97 394.97s176.832 394.97 394.97 394.97 394.97-176.832 394.97-394.97-176.832-394.97-394.97-394.97z" />
<glyph unicode="&#xe90b;" glyph-name="cancel" d="M960 805.44l-90.56 90.56-357.44-357.446-357.44 357.446-90.56-90.56 357.44-357.44-357.44-357.44 90.56-90.56 357.44 357.44 357.44-357.44 90.56 90.56-357.44 357.44 357.44 357.44z" />
<glyph unicode="&#xe90c;" glyph-name="close" d="M692.301 853.184l-33.101 12.186v-122.176l15.488-5.875c121.862-62.938 199.603-187.232 199.603-324.39 0-201.056-161.446-364.621-361.12-364.621-199.686 0-361.632 163.565-361.632 364.621 0 137.082 71.45 261.363 193.325 324.39l7.136 5.875v122.17l-24.512-12.179c-177.062-74.31-289.248-247.104-289.248-440.25 0-262.976 213.619-476.934 474.816-476.934s472.23 213.958 472.23 476.934c0 193.133-115.91 365.939-292.986 440.25zM512 426.893c30.765 0 51.2 25.203 51.2 56.173v420.762c0 30.982-20.435 56.173-51.2 56.173-30.752 0-51.2-25.19-51.2-56.173v-420.755c0-30.976 20.448-56.179 51.2-56.179z" />
<glyph unicode="&#xe90d;" glyph-name="cloud" d="M825.811 489.242c110.509-7.923 198.189-99.846 198.189-213.222 0-118.534-95.584-216.589-213.325-216.589h-554.669c-141.44 0-256.006 117.171-256.006 259.526 0 132.922 100.058 242.234 228.262 256.179 53.549 102.842 160.429 175.494 283.744 175.494 155.302 0 284.794-113.626 313.805-261.389v0z" />
<glyph unicode="&#xe90e;" glyph-name="cloud-done" d="M825.811 532.333c-29.011 147.68-158.509 261.267-313.811 261.267-123.315 0-230.189-72.614-283.744-175.411-128.205-13.946-228.256-123.213-228.256-256.070 0-142.298 114.56-259.718 256.006-259.718h554.662c117.747 0 213.331 98.31 213.331 216.787 0 113.331-87.68 205.21-198.189 213.146v0zM426.669 233.344l-149.338 150.24 60.378 60.749 88.954-89.517 220.8 222.15 60.378-60.73-281.171-282.893z" />
<glyph unicode="&#xe90f;" glyph-name="cloud-done-line" d="M624.032 573.837l-190.989-209.786-76.954 84.531-70.278-77.19 147.232-161.709 261.254 286.982zM825.811 540.538c-29.011 161.101-158.509 285.062-313.811 285.062-123.315 0-230.202-79.226-283.744-191.392-128.211-15.226-228.256-134.419-228.256-279.379 0-155.245 114.554-284.429 256-284.429h554.669c117.76 0 213.331 108.339 213.331 237.594 0 123.635-87.686 223.872-198.189 232.531v0.013zM810.669 164.070h-554.669c-94.298 0-170.669 87.27-170.669 190.778 0 103.494 76.371 187.334 170.669 187.334h30.285c27.962 107.949 118.202 189.754 225.715 189.754 129.702 0 234.669-117.632 234.669-260.019v-23.405h64c70.618 0 128-62.995 128-140.499 0-77.517-57.382-143.936-128-143.942v0z" />
<glyph unicode="&#xe910;" glyph-name="cloud-download" d="M825.811 532.32c-29.011 147.622-158.509 261.274-313.805 261.274-123.315 0-230.195-72.685-283.75-175.45-128.205-13.946-228.256-124.32-228.256-257.126 0-142.24 114.56-258.618 256.006-258.618h251.622l-216.301 217.6h156.672v211.2h128v-211.2h156.666l-216.301-217.6h294.298c117.754 0 213.338 97.274 213.338 215.706 0 113.286-87.68 206.291-198.189 214.214z" />
<glyph unicode="&#xe911;" glyph-name="cloud-download-line" d="M825.811 540.538c-29.011 161.101-158.509 285.062-313.811 285.062-123.315 0-230.202-79.226-283.744-191.392-128.211-15.226-228.256-134.419-228.256-279.379 0-155.245 114.554-284.429 256-284.429h554.669c117.76 0 213.331 108.339 213.331 237.594 0 123.635-87.686 223.872-198.189 232.531v0.013zM810.669 164.070h-554.669c-94.298 0-170.669 87.27-170.669 190.778 0 103.494 76.371 187.334 170.669 187.334h30.285c27.962 107.949 118.202 189.754 225.715 189.754 129.702 0 234.669-117.632 234.669-260.019v-23.405h64c70.618 0 128-62.995 128-140.499 0-77.517-57.382-143.936-128-143.942v0zM563.2 390.4v153.6h-115.2v-153.6h-116.589l180.768-199.251 180.762 199.251z" />
<glyph unicode="&#xe912;" glyph-name="cloud-queue" d="M825.811 540.538c-29.011 161.101-158.509 285.062-313.811 285.062-123.315 0-230.202-79.226-283.744-191.392-128.211-15.226-228.256-134.419-228.256-279.379 0-155.245 114.554-284.429 256-284.429h554.669c117.76 0 213.331 108.339 213.331 237.594 0 123.635-87.686 223.872-198.189 232.531v0.013zM810.669 164.070h-554.669c-94.298 0-170.669 87.27-170.669 190.778 0 103.494 76.371 187.334 170.669 187.334h30.285c27.962 107.949 118.202 189.754 225.715 189.754 129.702 0 234.669-117.632 234.669-260.019v-23.405h64c70.618 0 128-62.995 128-140.499 0-77.517-57.382-143.936-128-143.942v0z" />
<glyph unicode="&#xe913;" glyph-name="cloud-upload" d="M825.811 532.205c-29.011 147.2-158.509 260.544-313.805 260.544-123.315 0-230.195-72.493-283.75-174.963-128.205-13.907-228.256-124.531-228.256-256.947 0-141.843 114.56-258.438 256-258.438h185.6v198.4h-150.266l220.666 222.067 220.672-222.067h-150.272v-198.4h228.275c117.741 0 213.325 97.542 213.325 215.635 0 112.973-87.68 206.259-198.189 214.17z" />
<glyph unicode="&#xe914;" glyph-name="cloud-upload-line" d="M512.179 583.251l-180.768-199.251h116.589v-153.6h115.2v153.6h129.741zM825.811 540.538c-29.011 161.101-158.509 285.062-313.811 285.062-123.315 0-230.202-79.226-283.744-191.392-128.211-15.226-228.256-134.419-228.256-279.379 0-155.245 114.554-284.429 256-284.429h554.669c117.76 0 213.331 108.339 213.331 237.594 0 123.635-87.686 223.872-198.189 232.531v0.013zM810.669 164.070h-554.669c-94.298 0-170.669 87.27-170.669 190.778 0 103.494 76.371 187.334 170.669 187.334h30.285c27.962 107.949 118.202 189.754 225.715 189.754 129.702 0 234.669-117.632 234.669-260.019v-23.405h64c70.618 0 128-62.995 128-140.499 0-77.517-57.382-143.936-128-143.942v0z" />
<glyph unicode="&#xe915;" glyph-name="create" d="M904.128 649.101l-192.026 191.418 96.058 95.725c31.821 31.674 83.354 31.674 115.174 0l76.813-76.57c31.814-31.731 31.814-83.181 0-114.906l-96.019-95.667zM346.285 92.998l-192.026 191.418 522.029 516.326 192.013-191.424-522.016-516.32zM0-64l116.832 311.104 190.413-189.875-307.245-121.229z" />
<glyph unicode="&#xe916;" glyph-name="create-line" d="M984.64 855.219l-63.885 64.051c-25.056 25.126-58.88 39.494-92.666 39.494-29.818 0-57.216-11.040-77.37-31.117l-676.435-677.152c-0.698-0.634-0.506-1.594-1.011-2.342-0.896-1.146-1.792-2.368-2.195-3.808l-69.491-255.021c-4.051-14.829 0.096-30.848 11.066-42.118 8.224-8.038 19.059-12.442 30.579-12.442 3.795 0 7.61 0.454 11.354 1.459l253.011 69.062c0.403 0 0.589-0.358 0.909-0.358 2.906 0 5.76 1.056 7.91 3.258l676.531 676.947c20.102 20.147 31.11 47.578 31.11 77.434 0.006 33.818-14.323 67.603-39.418 92.653zM104.666 39.424l35.277 129.581 94.099-94.176-129.376-35.405zM303.507 127.642l-109.901 109.862 488.147 488.589 108.992-110.816-487.238-487.635zM926.746 751.45l-67.187-67.219-108.941 110.778 66.253 66.291c10.451 10.528 30.752 8.992 42.784-3.085l63.942-64.051c6.662-6.662 10.47-15.533 10.47-24.307-0.038-7.2-2.605-13.728-7.322-18.406z" />
<glyph unicode="&#xe917;" glyph-name="dashboard" d="M219.43 339.725c0 20.16-7.142 37.395-21.434 51.648-14.285 14.278-31.526 21.414-51.712 21.414s-37.434-7.13-51.725-21.414c-14.278-14.259-21.427-31.488-21.427-51.648 0-20.179 7.149-37.395 21.427-51.667 14.291-14.266 31.533-21.402 51.725-21.402 20.179 0 37.427 7.13 51.712 21.402s21.434 31.488 21.434 51.667zM329.146 595.462c0 20.179-7.149 37.389-21.434 51.661-14.285 14.266-31.52 21.408-51.718 21.408-20.192 0-37.434-7.142-51.712-21.408-14.291-14.272-21.434-31.482-21.434-51.661-0.006-20.166 7.136-37.389 21.434-51.661 14.278-14.266 31.52-21.402 51.712-21.402s37.421 7.13 51.718 21.402c14.291 14.272 21.434 31.494 21.434 51.661zM573.715 320.877l57.702 218.074c2.285 9.894 0.87 19.123-4.275 27.68-5.146 8.57-12.467 14.182-22.003 16.845-9.523 2.662-18.662 1.427-27.418-3.706-8.774-5.139-14.477-12.659-17.146-22.541l-57.728-218.074c-22.854-1.901-43.232-10.176-61.139-24.838-17.901-14.656-29.901-33.389-36.006-56.23-7.603-29.293-3.808-57.075 11.437-83.322 15.232-26.266 37.517-43.206 66.854-50.81 29.338-7.616 57.146-3.814 83.424 11.411s43.238 37.472 50.861 66.79c6.093 22.829 4.941 45.094-3.43 66.79-8.371 21.67-22.086 38.982-41.133 51.93v0zM950.854 339.725c0 20.16-7.155 37.395-21.434 51.648-14.285 14.278-31.533 21.414-51.718 21.414s-37.427-7.13-51.712-21.414c-14.285-14.259-21.434-31.488-21.434-51.648 0-20.179 7.142-37.395 21.434-51.667 14.285-14.266 31.526-21.402 51.712-21.402s37.434 7.13 51.718 21.402c14.278 14.272 21.434 31.488 21.434 51.667zM585.133 705.069c0 20.16-7.13 37.395-21.421 51.661-14.278 14.272-31.52 21.408-51.712 21.408s-37.434-7.13-51.718-21.408c-14.278-14.266-21.427-31.501-21.427-51.661 0-20.166 7.142-37.389 21.427-51.667 14.285-14.266 31.52-21.408 51.718-21.408 20.192 0.013 37.434 7.136 51.712 21.408 14.291 14.266 21.421 31.488 21.421 51.667v0zM841.126 595.462c0 20.179-7.123 37.389-21.414 51.661-14.285 14.266-31.533 21.408-51.712 21.408-20.186 0-37.427-7.142-51.718-21.408-14.272-14.272-21.414-31.482-21.414-51.661 0-20.166 7.136-37.389 21.414-51.661 14.291-14.266 31.533-21.402 51.718-21.402 20.179 0 37.427 7.13 51.712 21.402 14.291 14.272 21.414 31.494 21.414 51.661zM1024 339.725c0-99.334-26.867-191.232-80.589-275.718-7.226-11.046-17.51-19.206-30.842-19.206h-801.146c-13.331 0-23.616 8.16-30.854 19.206-53.709 84.102-80.57 176.006-80.57 275.718 0 69.248 13.517 135.482 40.57 198.656 27.046 63.174 63.43 117.581 109.146 163.258 45.715 45.67 100.192 82.010 163.43 109.024 63.232 27.034 129.523 40.538 198.854 40.538s135.61-13.51 198.854-40.538c63.232-27.014 117.709-63.354 163.424-109.024 45.715-45.677 82.099-100.096 109.146-163.258 27.046-63.174 40.576-129.408 40.576-198.656v0z" />
<glyph unicode="&#xe918;" glyph-name="disable" d="M515.194-61.779c-282.317 0-512 229.683-512 512s229.683 512 512 512 512-229.683 512-512-229.683-512-512-512zM515.194 834.221c-211.738 0-384-172.262-384-384s172.262-384 384-384 384 172.262 384 384-172.262 384-384 384zM820.826 48.934l-712.461 703.616 94.81 94.515 712.461-703.616z" />
<glyph unicode="&#xe919;" glyph-name="download" d="M921.6 140.8v-102.4h-819.2v102.4h-102.4v-204.8h1024v204.8zM633.6 544v416h-243.2v-416h-228.934l350.534-358.394 350.541 358.394z" />
<glyph unicode="&#xe91a;" glyph-name="exit" d="M801.146 320v128h-318.099v124.198h318.099v131.795l190.854-191.994-190.854-192zM737.523 384.013v-257.76h-318.099v-190.253l-387.424 191.373v831.994l705.523 0.634v-321.088l-64.717-1.107v257.088l-507.866-0.256 254.483-126.637v-576h252.589v192.013h65.51z" />
<glyph unicode="&#xe91b;" glyph-name="function" d="M294.4 800c0 28.275-22.925 51.2-51.2 51.2h-192c-28.275 0-51.2-22.925-51.2-51.2v-115.2c0-28.275 22.925-51.2 51.2-51.2h192c28.275 0 51.2 22.925 51.2 51.2v115.2zM294.4 390.4c0-28.275-22.925-51.2-51.2-51.2h-192c-28.275 0-51.2 22.925-51.2 51.2v115.2c0 28.275 22.925 51.2 51.2 51.2h192c28.275 0 51.2-22.925 51.2-51.2v-115.2zM294.4 96c0-28.275-22.925-51.2-51.2-51.2h-192c-28.275 0-51.2 22.925-51.2 51.2v115.2c0 28.275 22.925 51.2 51.2 51.2h192c28.275 0 51.2-22.925 51.2-51.2v-115.2zM659.2 684.8c0-28.275-22.925-51.2-51.2-51.2h-192c-28.275 0-51.2 22.925-51.2 51.2v115.2c0 28.275 22.925 51.2 51.2 51.2h192c28.275 0 51.2-22.925 51.2-51.2v-115.2zM659.2 390.4c0-28.275-22.925-51.2-51.2-51.2h-192c-28.275 0-51.2 22.925-51.2 51.2v115.2c0 28.275 22.925 51.2 51.2 51.2h192c28.275 0 51.2-22.925 51.2-51.2v-115.2zM659.2 96c0-28.275-22.925-51.2-51.2-51.2h-192c-28.275 0-51.2 22.925-51.2 51.2v115.2c0 28.275 22.925 51.2 51.2 51.2h192c28.275 0 51.2-22.925 51.2-51.2v-115.2zM1024 684.8c0-28.275-22.925-51.2-51.2-51.2h-192c-28.275 0-51.2 22.925-51.2 51.2v115.2c0 28.275 22.925 51.2 51.2 51.2h192c28.275 0 51.2-22.925 51.2-51.2v-115.2zM1024 390.4c0-28.275-22.925-51.2-51.2-51.2h-192c-28.275 0-51.2 22.925-51.2 51.2v115.2c0 28.275 22.925 51.2 51.2 51.2h192c28.275 0 51.2-22.925 51.2-51.2v-115.2zM1024 96c0-28.275-22.925-51.2-51.2-51.2h-192c-28.275 0-51.2 22.925-51.2 51.2v115.2c0 28.275 22.925 51.2 51.2 51.2h192c28.275 0 51.2-22.925 51.2-51.2v-115.2z" />
<glyph unicode="&#xe91c;" glyph-name="heart" d="M934.157 802.445c-116.154 113.44-301.862 115.814-422.157 9.088-120.358 106.726-306.016 104.352-422.214-9.088-119.718-116.858-119.718-306.272 0-423.181 34.214-33.402 353.734-345.146 353.734-345.146 37.869-36.966 99.066-36.966 136.934 0 0 0 349.856 341.376 353.734 345.146 119.757 116.902 119.757 306.323-0.032 423.181z" />
<glyph unicode="&#xe91d;" glyph-name="heart-line" d="M934.65 802.368c-116.134 113.44-301.869 115.814-422.157 9.075-120.346 106.739-306.010 104.365-422.202-9.075-119.731-116.851-119.731-306.266 0-423.174 34.221-33.421 353.741-345.126 353.741-345.126 37.856-36.986 99.066-36.986 136.909 0 0 0 349.869 341.376 353.741 345.126 119.757 116.909 119.757 306.323-0.032 423.174zM889.037 423.731l-353.734-345.139c-12.576-12.326-33.075-12.326-45.587 0l-353.754 345.139c-94.406 92.115-94.406 241.99 0 334.106 91.021 88.794 237.35 91.923 333.12 6.995l43.411-38.502 43.354 38.502c95.814 84.934 242.15 81.83 333.165-6.995 94.426-92.090 94.426-241.971 0.026-334.106z" />
<glyph unicode="&#xe91e;" glyph-name="help" d="M512 960c-282.886 0-512-229.12-512-512 0-282.886 229.114-512 512-512 282.88 0 512 229.114 512 512 0 282.88-229.12 512-512 512v0zM563.2 89.594h-102.4v102.4h102.4v-102.4zM668.934 486.144l-45.83-47.098c-36.864-36.877-59.904-67.846-59.904-144.646h-102.4v25.594c0 56.576 23.040 107.776 59.898 144.902l63.744 64.512c18.438 18.432 29.958 44.032 29.958 72.192 0 56.57-45.83 102.4-102.4 102.4s-102.4-45.83-102.4-102.4h-102.4c0 113.158 91.642 204.8 204.806 204.8 113.152 0 204.8-91.642 204.8-204.8 0-45.056-18.176-85.754-47.872-115.456v0z" />
<glyph unicode="&#xe91f;" glyph-name="home" d="M0 380.314l512 515.686 512-515.686h-92.787l-419.213 421.318-419.213-421.318zM698.682 800.454v94.362h139.738v-234.803zM395.731 0v380.314h232.538v-380.314h210.15v380.314l-326.419 328.064-326.419-328.064v-380.314z" />
<glyph unicode="&#xe920;" glyph-name="idea" d="M512 960c-194.432 0-352-157.574-352-352 0-128.998 118.010-265.696 160.992-385.76 64.096-179.040 56.992-286.24 191.008-286.24 135.987 0 126.88 106.701 191.008 285.498 43.104 120.326 160.992 258.502 160.992 386.502 0 194.426-157.632 352-352 352zM594.944 90.368l-158.65-19.802c-5.677 16.378-11.744 35.552-19.136 60.57-0.096 0.326-0.224 0.672-0.294 0.986l198.016 24.742c-2.816-9.453-5.824-19.36-8.448-28.262-4.192-14.362-7.93-26.829-11.488-38.234zM407.558 162.938c-5.83 19.277-12.384 39.565-19.674 61.062h248.506c-3.942-11.488-7.872-23.002-11.27-33.888l-217.562-27.174zM512 0.006c-32.403 0-47.328 3.731-63.904 40l135.616 16.986c-19.648-52.915-33.952-56.986-71.712-56.986zM661.498 288h-298.656c-15.93 34.566-35.066 69.126-53.952 102.938-41.754 74.739-84.883 152.006-84.883 217.062 0 158.803 129.178 287.994 287.994 287.994s287.994-129.19 287.994-287.994c0-64.582-43.187-142.272-84.979-217.44-18.701-33.69-37.702-68.186-53.517-102.56zM512 800c8.813 0 16-7.174 16-16 0-8.838-7.162-16.006-16-16.006-88.224 0-160-71.77-160-159.994 0-8.832-7.155-16.006-15.994-16.006-8.851 0-16.006 7.174-16.006 16.006 0 105.888 86.112 192 192 192z" />
<glyph unicode="&#xe921;" glyph-name="info" d="M512 960c-282.886 0-512-229.12-512-512 0-282.886 229.114-512 512-512 282.88 0 512 229.114 512 512 0 282.88-229.12 512-512 512v0zM563.2 192h-102.4v307.2h102.4v-307.2zM563.2 601.6h-102.4v102.4h102.4v-102.4z" />
<glyph unicode="&#xe922;" glyph-name="info-line" d="M512 960c-282.886 0-512-229.12-512-512s229.114-512 512-512 512 229.12 512 512-229.114 512-512 512zM512.006 53.030c-217.728 0-394.976 177.242-394.976 394.97 0 217.734 177.248 394.976 394.976 394.976 217.734 0 394.963-177.242 394.963-394.976 0-217.728-177.235-394.97-394.963-394.97zM460.8 192h102.4v307.2h-102.4v-307.2zM460.8 601.6h102.4v102.4h-102.4v-102.4z" />
<glyph unicode="&#xe923;" glyph-name="more-horizontal" d="M128 576c-70.72 0-128-57.286-128-128s57.28-128 128-128 128 57.286 128 128-57.286 128-128 128v0zM896 576c-70.726 0-128-57.286-128-128s57.286-128 128-128 128 57.286 128 128-57.286 128-128 128v0zM512 576c-70.72 0-128-57.286-128-128s57.286-128 128-128 128 57.286 128 128-57.286 128-128 128v0z" />
<glyph unicode="&#xe924;" glyph-name="landline" d="M512.198 728.742c-236.819 0-433.024-351.962-433.024-527.93 0-162.451 74.419-162.451 433.024-162.451 358.592 0 433.018 0 433.018 162.451 0 175.968-196.218 527.93-433.018 527.93zM512.198 288.806c-101.504 0-182.688 81.21-182.688 182.739s81.184 182.739 182.688 182.739c101.485 0 182.682-81.203 182.682-182.739 0-101.53-81.19-182.739-182.682-182.739zM133.101 519.194c74.419 121.824 202.989 250.426 378.899 250.426s318.003-142.138 378.893-250.426c33.837-54.144 94.726-47.366 121.792 0 20.301 33.837 74.426 338.406-500.685 338.406s-520.986-311.341-500.691-338.406c40.595-54.144 108.269-27.072 121.792 0v0 0z" />
<glyph unicode="&#xe925;" glyph-name="light" d="M793.6 448.96l-190.221 52.768 137.21 458.272-510.189-523.085 187.45-50.579-152.058-450.336z" />
<glyph unicode="&#xe926;" glyph-name="love" d="M934.157 802.445c-116.141 113.434-301.856 115.808-422.157 9.075-120.346 106.733-306.003 104.358-422.195-9.075-119.738-116.851-119.738-306.272 0-423.174 34.208-33.408 353.734-345.139 353.734-345.139 37.856-36.973 99.066-36.973 136.915 0 0 0 349.856 341.382 353.734 345.139 119.757 116.896 119.757 306.323-0.032 423.174zM888.544 423.808l-353.734-345.126c-12.576-12.339-33.075-12.339-45.587 0l-353.747 345.126c-94.426 92.115-94.426 241.984 0 334.099 91.002 88.794 237.344 91.923 333.12 6.995l43.405-38.483 43.354 38.483c95.814 84.934 242.15 81.837 333.165-6.995 94.426-92.090 94.426-241.965 0.026-334.099zM296 731.904c8.877 0 16.013-7.059 16.013-15.776 0-8.704-7.168-15.77-16.013-15.77h-0.038c-57.402 0-103.974-45.901-103.974-102.49v-0.032c0-8.71-7.174-15.776-16-15.776-8.832 0-16 7.066-16 15.776v0c0 74.010 60.845 133.971 135.878 134.022 0.058 0.006 0.058 0.045 0.134 0.045z" />
<glyph unicode="&#xe927;" glyph-name="menu" d="M0 832h1024v-128h-1024v128zM0 512h1024v-128h-1024v128zM0 192h1024v-128h-1024v128z" />
<glyph unicode="&#xe928;" glyph-name="menu-stretch" d="M0 832h832v-128h-832v128zM0 512h1024v-128h-1024v128zM0 192h640v-128h-640v128z" />
<glyph unicode="&#xe929;" glyph-name="minus-circle" d="M512 960c-282.784 0-512-229.216-512-512s229.216-512 512-512 512 229.216 512 512-229.216 512-512 512zM768 433.229c0-21.786-17.645-39.386-39.386-39.386h-433.229c-21.786 0-39.386 17.6-39.386 39.386v39.379c0 21.747 17.6 39.392 39.386 39.392h433.222c21.741 0 39.386-17.645 39.386-39.386v-39.386z" />
<glyph unicode="&#xe92a;" glyph-name="minus-line" d="M512 960c-282.784 0-512-229.216-512-512s229.216-512 512-512 512 229.216 512 512-229.216 512-512 512zM512 53.030c-218.106 0-394.97 176.87-394.97 394.97 0 218.144 176.864 394.97 394.97 394.97 218.144 0 394.97-176.826 394.97-394.97 0-218.099-176.826-394.97-394.97-394.97zM669.542 487.386h-315.078c-21.766 0-39.379-17.645-39.379-39.386 0-21.779 17.613-39.386 39.379-39.386h315.078c21.773 0 39.373 17.606 39.373 39.386 0.006 21.741-17.594 39.386-39.373 39.386z" />
<glyph unicode="&#xe92b;" glyph-name="more-vert" d="M384 63.994c0-70.72 57.286-127.994 128-127.994s128 57.274 128 127.994c0 70.726-57.286 128.006-128 128.006s-128-57.286-128-128.006v0zM384 832.006c0-70.733 57.286-128.006 128-128.006s128 57.28 128 128.006c0 70.714-57.286 127.994-128 127.994s-128-57.28-128-127.994v0zM384 448c0-70.72 57.286-127.994 128-127.994s128 57.28 128 127.994-57.286 127.994-128 127.994-128-57.28-128-127.994v0z" />
<glyph unicode="&#xe92c;" glyph-name="narrow" d="M418.906 960c56.73 0 110.976-11.091 162.733-33.28 51.763-22.176 96.307-51.923 133.645-89.267 37.325-37.338 67.078-81.882 89.267-133.638 22.182-51.757 33.267-106.003 33.267-162.72 0-48.723-7.93-95.398-23.821-140.006-15.878-44.608-38.496-85.088-67.814-121.453l264.365-264c8.966-8.973 13.453-20.006 13.453-33.094 0-13.331-4.41-24.422-13.261-33.28-8.858-8.851-19.949-13.261-33.28-13.261-13.088 0-24.122 4.48-33.094 13.453l-264 264.365c-36.365-29.318-76.845-51.93-121.453-67.814s-91.283-23.821-140.006-23.821c-56.717 0-110.963 11.085-162.72 33.267-51.757 22.189-96.301 51.942-133.638 89.267-37.338 37.338-67.091 81.882-89.267 133.645-22.189 51.757-33.28 106.003-33.28 162.733 0 56.717 11.091 110.963 33.28 162.72 22.176 51.757 51.93 96.301 89.267 133.638 37.338 37.344 81.882 67.091 133.638 89.267 51.757 22.189 106.003 33.28 162.72 33.28zM418.906 866.906c-44.122 0-86.304-8.608-126.541-25.818-40.243-17.203-74.912-40.352-104-69.453-29.101-29.088-52.243-63.75-69.453-104-17.21-40.237-25.818-82.426-25.818-126.541 0-44.128 8.608-86.304 25.818-126.554 17.203-40.237 40.352-74.899 69.453-104 29.088-29.082 63.757-52.23 104-69.446 40.237-17.21 82.426-25.824 126.541-25.824 44.128 0 86.304 8.614 126.554 25.824 40.237 17.21 74.899 40.365 103.994 69.446 29.088 29.101 52.237 63.763 69.453 104 17.21 40.25 25.824 82.432 25.824 126.554s-8.614 86.304-25.824 126.541c-17.21 40.25-40.365 74.912-69.453 104-29.094 29.101-63.757 52.243-103.994 69.453-40.25 17.21-82.426 25.818-126.554 25.818zM570.63 569.6h-307.2c-24.198 0-43.878-17.402-43.878-41.6s19.68-41.6 43.878-41.6h307.2c24.198 0 43.885 17.402 43.885 41.6s-19.686 41.6-43.885 41.6z" />
<glyph unicode="&#xe92d;" glyph-name="news" d="M928 960h-704c-53.018 0-96-42.95-96-96v-64.006h-32c-53.018 0-96-42.938-96-95.994v-640c0-70.688 57.312-128 128-128h768c70.688 0 128 57.312 128 128v800c0 53.050-43.008 96-96 96zM960 64c0-35.264-28.736-64-64-64h-768c-35.302 0-64 28.736-64 64v640c0 17.664 14.33 31.994 32 31.994h32v-639.994c0-17.702 14.291-32 32.006-32 17.696 0 31.994 14.298 31.994 32v768c0 17.67 14.33 32 32 32h704c17.632 0 32-14.33 32-32v-800zM623.936 543.84c-8.8 0-15.994 7.168-15.994 16.006 0 8.826 7.194 15.994 15.994 15.994h256.006c8.858 0 15.994-7.168 15.994-15.994 0-8.838-7.136-16.006-15.994-16.006h-256.006zM623.936 639.846c-8.8 0-15.994 7.162-15.994 15.994s7.194 16 15.994 16h256.006c8.858 0 15.994-7.168 15.994-16s-7.136-15.994-15.994-15.994h-256.006zM623.936 735.84c-8.8 0-15.994 7.168-15.994 16.006s7.194 16 15.994 16h256.006c8.858 0 15.994-7.162 15.994-16s-7.136-16.006-15.994-16.006h-256.006zM528 95.866c8.832 0 16-7.2 16-16 0-8.864-7.2-16-16-16h-256c-8.838 0-16 7.136-16 16 0 8.8 7.162 16 16 16h256zM528 191.866c8.832 0 16-7.187 16-16 0-8.864-7.2-16-16-16h-256c-8.838 0-16 7.136-16 16 0 8.813 7.162 16 16 16h256zM528 287.866c8.832 0 16-7.2 16-16 0-8.864-7.2-16-16-16h-256c-8.838 0-16 7.136-16 16 0 8.8 7.162 16 16 16h256zM880 95.866c8.8 0 16-7.2 16-16 0-8.864-7.2-16-16-16h-256c-8.864 0-16 7.136-16 16 0 8.8 7.136 16 16 16h256zM880 191.866c8.8 0 16-7.187 16-16 0-8.864-7.2-16-16-16h-256c-8.864 0-16 7.136-16 16 0 8.813 7.136 16 16 16h256zM880 287.866c8.8 0 16-7.2 16-16 0-8.864-7.2-16-16-16h-256c-8.864 0-16 7.136-16 16 0 8.8 7.136 16 16 16h256zM880 479.866c8.8 0 16-7.162 16-16 0-8.832-7.2-16-16-16h-608c-8.838 0-16 7.168-16 16 0 8.838 7.162 16 16 16h608zM880 383.866c8.8 0 16-7.2 16-16 0-8.864-7.2-16-16-16h-608c-8.838 0-16 7.136-16 16 0 8.8 7.162 16 16 16h608zM288 544h224c17.702 0 32 14.298 32 32v223.866c0 17.702-14.298 32-32 32h-224c-17.702 0-32-14.298-32-32v-223.866c0-17.664 14.298-32 32-32zM320 768h160v-160h-160v160z" />
<glyph unicode="&#xe92e;" glyph-name="office" d="M0-64h512v1024h-512v-1024zM320 832.006h128.006v-128h-128.006v128zM320 576h128.006v-128h-128.006v128zM320 320h128.006v-128h-128.006v128zM64.006 832.006h128v-128h-128v128zM64.006 576h128v-128h-128v128zM64.006 320h128v-128h-128v128zM576 640.006h447.994v-64.006h-447.994v64.006zM576-64h128v256h192v-256h128v576h-448v-576z" />
<glyph unicode="&#xe92f;" glyph-name="params" d="M256 767.334v96.666c0 52.928-43.066 96-95.994 96s-96.006-43.072-96.006-96v-96.666c-38.662-29.286-64-75.136-64-127.334 0-52.186 25.338-98.042 64-127.258v-480.742c0-52.928 43.078-96 96.006-96s95.994 43.072 95.994 96v480.742c38.669 29.184 64 75.072 64 127.258 0 52.198-25.331 98.048-64 127.334zM128 864c0 17.696 14.304 32 32.006 32 17.683 0 31.994-14.304 31.994-32v-67.2c-10.336 2.080-21.018 3.2-31.994 3.2s-21.67-1.114-32.006-3.2v67.2zM192 32c0-17.696-14.31-31.994-31.994-31.994-17.702 0-32.006 14.298-32.006 31.994v451.27c10.336-2.15 21.030-3.277 32.006-3.277s21.658 1.126 31.994 3.277v-451.27zM251.686 613.12c-0.512-1.696-0.954-3.354-1.568-5.050-3.046-8.454-6.944-16.454-12.115-23.565-0.115-0.186-0.32-0.314-0.442-0.506-5.562-7.616-12.179-14.368-19.693-20.064-0.134-0.128-0.23-0.186-0.333-0.269-7.712-5.811-16.326-10.496-25.568-13.754-10.010-3.616-20.678-5.914-31.962-5.914-11.296 0-21.952 2.304-32.006 5.965-9.235 3.258-17.837 7.93-25.562 13.754-0.109 0.064-0.192 0.134-0.32 0.262-7.533 5.69-14.15 12.435-19.718 20.064-0.128 0.192-0.326 0.314-0.454 0.506-5.139 7.13-9.050 15.13-12.090 23.552-0.602 1.702-1.043 3.366-1.568 5.062-2.534 8.538-4.288 17.466-4.288 26.835 0 9.453 1.754 18.381 4.314 26.95 0.525 1.683 0.954 3.354 1.581 4.986 3.002 8.442 6.912 16.442 12.102 23.616 0.128 0.186 0.307 0.314 0.442 0.512 5.562 7.546 12.186 14.368 19.712 20.064 0.128 0.058 0.211 0.192 0.307 0.25 7.706 5.734 16.307 10.438 25.542 13.734 10.054 3.578 20.71 5.888 32.006 5.888 11.283 0 21.952-2.31 31.994-5.882 9.254-3.328 17.837-8 25.562-13.76 0.109-0.064 0.198-0.198 0.339-0.262 7.514-5.696 14.131-12.512 19.693-20.064 0.134-0.192 0.333-0.314 0.442-0.518 5.158-7.13 9.062-15.13 12.083-23.578 0.614-1.632 1.082-3.302 1.568-4.986 2.573-8.57 4.314-17.498 4.314-26.95 0-9.37-1.741-18.298-4.314-26.88zM960.006 767.334v96.666c0 52.928-43.066 96-96.006 96-52.928 0-96-43.072-96-96v-96.666c-38.694-29.286-64-75.136-64-127.334 0-52.186 25.306-98.042 64-127.258v-480.742c0-52.928 43.072-96 96-96 52.934 0 96.006 43.072 96.006 96v480.742c38.63 29.184 63.994 75.072 63.994 127.258 0 52.198-25.363 98.048-63.994 127.334zM832.006 864c0 17.696 14.278 32 31.994 32 17.69 0 32-14.304 32-32v-67.2c-10.362 2.080-21.056 3.2-32 3.2-11.014 0-21.696-1.12-31.994-3.2v67.2zM896 32c0-17.696-14.31-31.994-32-31.994-17.715 0-31.994 14.298-31.994 31.994v451.27c10.298-2.15 20.979-3.277 31.994-3.277 10.944 0 21.638 1.126 32 3.277v-451.27zM955.686 613.12c-0.512-1.696-0.986-3.354-1.568-5.050-3.066-8.454-6.944-16.454-12.134-23.565-0.134-0.186-0.32-0.314-0.442-0.506-5.574-7.616-12.205-14.368-19.686-20.064-0.128-0.128-0.25-0.186-0.307-0.269-7.75-5.811-16.339-10.496-25.581-13.754-10.022-3.616-20.704-5.914-31.968-5.914-11.328 0-21.946 2.304-31.994 5.965-9.248 3.258-17.888 7.93-25.562 13.754-0.134 0.064-0.198 0.134-0.326 0.262-7.565 5.69-14.182 12.435-19.757 20.064-0.134 0.192-0.32 0.314-0.442 0.506-5.12 7.13-9.050 15.13-12.064 23.552-0.646 1.702-1.056 3.366-1.568 5.062-2.534 8.538-4.288 17.466-4.288 26.835 0 9.453 1.754 18.381 4.326 26.95 0.499 1.683 0.922 3.354 1.555 4.986 3.021 8.442 6.944 16.442 12.064 23.616 0.134 0.186 0.32 0.314 0.454 0.512 5.568 7.546 12.186 14.368 19.75 20.064 0.115 0.058 0.186 0.192 0.314 0.25 7.699 5.766 16.326 10.438 25.574 13.766 10.016 3.546 20.634 5.856 31.962 5.856 11.264 0 21.946-2.31 32-5.882 9.242-3.328 17.824-8 25.562-13.76 0.083-0.064 0.198-0.198 0.339-0.262 7.475-5.696 14.099-12.512 19.654-20.064 0.141-0.192 0.339-0.314 0.461-0.518 5.178-7.194 9.056-15.194 12.134-23.61 0.582-1.626 1.050-3.322 1.568-4.986 2.522-8.538 4.288-17.466 4.288-26.918 0-9.37-1.766-18.298-4.32-26.88zM608 383.334v480.666c0 52.928-43.072 96-96 96s-96-43.072-96-96v-480.672c-38.669-29.248-64-75.13-64-127.328 0-52.186 25.331-98.054 64-127.264v-96.736c0-52.928 43.072-96 96-96s96 43.072 96 96v96.742c38.637 29.197 64.006 75.072 64.006 127.264s-25.37 98.048-64.006 127.328zM480 864c0 17.696 14.298 32 32 32s32.006-14.304 32.006-32v-451.194c-10.381 2.022-21.056 3.194-32.006 3.194-10.982 0-21.664-1.114-32-3.194v451.194zM544.006 32c0-17.696-14.304-31.994-32.006-31.994s-32 14.298-32 31.994v67.264c10.336-2.157 21.018-3.258 32-3.258 10.95 0 21.626 1.101 32.006 3.258v-67.264zM603.674 229.12c-0.506-1.696-0.979-3.36-1.555-5.043-3.066-8.442-6.944-16.435-12.128-23.558-0.128-0.192-0.333-0.326-0.448-0.512-5.562-7.61-12.205-14.355-19.674-20.058-0.134-0.134-0.275-0.192-0.326-0.256-7.757-5.837-16.346-10.515-25.574-13.766-10.016-3.622-20.698-5.933-31.968-5.933-11.283 0-21.958 2.304-32 5.958-9.242 3.27-17.85 7.942-25.562 13.766-0.109 0.070-0.198 0.134-0.339 0.262-7.494 5.69-14.144 12.442-19.699 20.051-0.134 0.205-0.32 0.32-0.448 0.512-5.146 7.136-9.050 15.149-12.083 23.552-0.614 1.709-1.062 3.366-1.581 5.056-2.528 8.563-4.288 17.485-4.288 26.854 0 9.446 1.76 18.355 4.326 26.944 0.506 1.702 0.947 3.366 1.568 4.998 3.046 8.429 6.938 16.429 12.096 23.603 0.134 0.198 0.32 0.326 0.454 0.518 5.549 7.565 12.192 14.374 19.693 20.058 0.134 0.064 0.224 0.192 0.32 0.262 7.731 5.754 16.333 10.426 25.574 13.766 10.010 3.546 20.685 5.843 31.968 5.843 11.27 0 21.952-2.298 32.006-5.882 9.235-3.322 17.811-8.013 25.555-13.766 0.077-0.070 0.192-0.179 0.339-0.256 7.475-5.677 14.106-12.512 19.661-20.064 0.134-0.173 0.333-0.314 0.448-0.499 5.19-7.213 9.062-15.213 12.147-23.616 0.57-1.632 1.030-3.334 1.555-4.992 2.528-8.557 4.282-17.466 4.282-26.912 0.006-9.376-1.747-18.298-4.32-26.893z" />
<glyph unicode="&#xe930;" glyph-name="pencil-dot" d="M265.984 203.462l-63.808 14.202 439.245 438.72 73.037-73.018-439.181-438.662-9.293 58.758zM762.534 536.128l-437.222-436.666-176.96-51.974-36.742 36.736 54.208 184.64 432.224 431.68-52.288 52.358-438.752-434.688c-6.010-4.8-11.066-10.886-13.389-18.88l-92.026-313.414c-4.038-13.696-0.25-28.41 9.856-38.534 7.296-7.411 17.28-11.386 27.392-11.386 3.712 0 7.354 0.518 10.944 1.53l313.613 92.045c7.494 2.17 13.248 6.771 17.92 12.275l439.776 435.718-58.554 58.56zM585.485 796.608l275.546-275.334 62.976 59.072-275.462 275.334-63.059-59.072zM996.397 800.576l-131.987 131.904c-36.41 36.416-95.168 36.73-131.277 0.698l-40.499-40.947 264.013-263.878 40.506 40.96c36.051 36.032 35.789 94.784-0.755 131.264z" />
<glyph unicode="&#xe931;" glyph-name="phone" d="M750.931 345.6c-68.269-68.269-68.269-136.531-136.538-136.531s-136.531 68.262-204.8 136.531c-68.262 68.269-136.531 136.531-136.531 204.8 0 68.262 68.269 68.262 136.531 136.531 68.275 68.275-136.531 273.069-204.8 273.069-68.262 0-204.794-204.8-204.794-204.8 0-136.538 140.269-413.331 273.069-546.131s409.594-273.069 546.138-273.069c0 0 204.794 136.531 204.794 204.794 0 68.269-204.794 273.075-273.069 204.806v0z" />
<glyph unicode="&#xe932;" glyph-name="phone-hang" d="M1019.226 431.546c8.006-57.069 13.222-135.142-11.661-165.037-41.146-49.408-301.709-49.408-301.709 49.421 0 49.786 42.848 82.419 1.715 131.846-40.48 48.627-113.024 49.402-193.722 49.414-80.685 0-153.235-0.787-193.709-49.414-41.146-49.427 1.709-82.054 1.709-131.846 0-98.822-260.57-98.822-301.715-49.421-24.89 29.894-19.667 107.968-11.667 165.030 6.17 38.099 21.734 79.2 71.552 131.654h0.006c74.739 71.731 187.846 130.355 429.824 131.622v0.038c1.344 0 2.669-0.006 4-0.019 1.338 0.013 2.656 0.019 4 0.019v-0.038c241.984-1.267 355.085-59.878 429.824-131.616 0.006-0.006 0.006-0.006 0.006-0.006 49.824-52.442 65.389-93.542 71.546-131.648v0z" />
<glyph unicode="&#xe933;" glyph-name="phone-line" d="M802.4-42.957h-4.282c-128.87 0-390.611 130.419-518.637 258.445-128.019 128.019-258.438 389.76-258.438 518.618v4.282l2.368 3.552c21.933 32.909 134.784 197.018 202.47 197.018 55.213 0 173.555-108.838 207.558-190.893 19.52-47.149 7.046-73.613-6.835-87.501-25.44-25.453-51.187-41.37-71.885-54.15-35.462-21.926-51.149-32.883-51.149-63.053 0-57.747 62.541-120.275 123.040-180.762 60.486-60.486 123.002-123.034 180.755-123.034 30.182 0 41.139 15.68 63.066 51.162 12.787 20.678 28.685 46.432 54.144 71.866 11.232 11.232 25.747 16.934 43.181 16.934 56.589 0 124.006-59.622 150.349-85.254 39.155-38.080 84.864-95.603 84.864-132.403 0-67.693-164.109-180.544-197.011-202.477l-3.558-2.349zM49.299 729.901c2.893-122.419 129.952-374.278 250.138-494.47 120.173-120.186 372.045-247.245 494.47-250.131 71.462 48.147 180.838 136.461 180.838 176.582 0 45.978-134.432 189.434-207.002 189.434-9.811 0-17.402-2.822-23.238-8.659-23.117-23.117-37.453-46.304-50.093-66.752-21.414-34.643-39.891-64.544-87.059-64.544-69.446 0-136.16 66.739-200.698 131.296-64.563 64.544-131.302 131.283-131.302 200.704 0 47.155 29.901 65.638 64.538 87.046 20.448 12.646 43.642 26.963 66.765 50.099 11.373 11.36 11.61 30.458 0.71 56.749-33.056 79.846-144.32 173.491-181.485 173.491-40.122 0-128.429-109.389-176.582-180.845zM808.755-64h-10.637c-133.19 0-402.438 133.542-533.517 264.608-131.066 131.072-264.602 400.314-264.602 533.498v10.643l5.907 8.858c41.357 62.054 145.594 206.394 219.974 206.394 68.813 0 192.102-119.661 227.002-203.885 25.21-60.915 3.686-95.334-11.392-110.419-27.258-27.283-55.277-44.557-75.731-57.184-36.154-22.362-41.158-27.853-41.158-45.152 0-49.024 62.099-111.11 116.883-165.882 54.803-54.816 116.864-116.877 165.875-116.877 17.312 0 22.803 4.998 45.178 41.184 13.376 21.658 29.99 48.55 57.158 75.699 15.11 15.098 35.194 23.091 58.054 23.091 62.010 0 130.003-57.165 165.018-91.219 21.408-20.813 91.238-92.973 91.238-147.482 0-74.394-144.333-178.63-206.387-219.981l-8.864-5.894zM70.605 723.834c7.078-119.917 130.029-359.84 243.706-473.523s353.6-236.627 473.523-243.699c95.315 65.094 165.862 135.11 165.862 155.277 0 31.533-122.042 168.39-185.958 168.39-5.856 0-7.552-1.683-8.365-2.509-21.37-21.35-35.002-43.405-47.034-62.854-21.638-35.002-46.099-74.586-104.992-74.586-78.163 0-148.019 69.888-215.59 137.466-67.558 67.539-137.446 137.402-137.446 215.565 0 58.886 39.59 83.347 74.509 104.934 19.571 12.102 41.6 25.728 62.95 47.091 4.448 4.429 2.982 17.395-3.84 33.811-31.898 77.062-138.125 160.499-162.048 160.499-20.147 0.006-90.176-70.547-155.277-165.862z" />
<glyph unicode="&#xe934;" glyph-name="plus-circle" d="M512-64c-282.784 0-512 229.222-512 512 0 282.784 229.216 512 512 512s512-229.216 512-512c0-282.778-229.216-512-512-512zM765.555 470.144c0 21.734-17.645 39.379-39.386 39.379h-157.53v157.536c0 21.741-17.606 39.392-39.392 39.392h-39.379c-21.773 0-39.379-17.651-39.379-39.392v-157.53h-157.549c-21.779 0-39.386-17.651-39.386-39.379v-39.386c0-21.779 17.606-39.386 39.386-39.386h157.536v-157.53c0-21.786 17.606-39.386 39.379-39.386h39.379c21.786 0 39.392 17.6 39.392 39.386v157.517h157.53c21.741 0 39.386 17.606 39.386 39.386v39.392z" />
<glyph unicode="&#xe935;" glyph-name="plus-line" d="M512 960c-282.784 0-512-229.216-512-512s229.216-512 512-512 512 229.216 512 512-229.216 512-512 512zM512 53.030c-218.106 0-394.97 176.87-394.97 394.97 0 218.144 176.864 394.97 394.97 394.97 218.144 0 394.97-176.826 394.97-394.97 0-218.099-176.826-394.97-394.97-394.97zM669.542 487.386h-315.078c-21.766 0-39.379-17.645-39.379-39.386 0-21.779 17.613-39.386 39.379-39.386h315.078c21.773 0 39.373 17.606 39.373 39.386 0.006 21.741-17.594 39.386-39.373 39.386zM472.614 605.542v-315.078c0-21.766 17.645-39.379 39.386-39.379 21.779 0 39.386 17.613 39.386 39.379v315.078c0 21.773-17.606 39.373-39.386 39.373-21.741 0.006-39.386-17.594-39.386-39.373z" />
<glyph unicode="&#xe936;" glyph-name="remove" d="M1024 377.6h-1024v140.8h1024v-140.8z" />
<glyph unicode="&#xe937;" glyph-name="save" d="M1015.763 762.080l-188.934 188.749c-6.816 6.848-15.053 9.171-24 9.171h-718.432c-43.258 0-84.397-32.755-84.397-73.747v-867.635c0-41.568 41.901-82.618 84.397-82.618h867.654c40.73 0 71.949 39.571 71.949 82.611v718.432c0 9.811-1.901 18.707-8.237 25.037zM70.4 18.611v867.642c0 2.086 10.016 9.747 13.997 9.747h184.403v-216.666c0-33.44 28.883-71.334 64.134-71.334h369.312c34.074 0 59.347 37.139 59.347 71.334v216.666h26.541l171.866-173.613v-703.776c0-3.802-5.862-12.211-7.942-12.211h-88.058v307.661c0 88.678-71.2 153.139-166.304 153.139h-340.416c-94.605 0-165.28-64.461-165.28-153.139v-307.661h-107.603c-3.258 0-13.997 9.466-13.997 12.211zM345.6 896h224v-204.8h-224v204.8zM633.6 896h51.2v-204.8h-51.2v204.8zM262.4 314.061c0 49.69 39.066 82.739 94.88 82.739h340.41c54.17 0 89.51-31.494 89.51-82.739v-307.661h-524.8v307.661z" />
<glyph unicode="&#xe938;" glyph-name="search" d="M418.906 960c56.73 0 110.976-11.091 162.733-33.28 51.763-22.176 96.307-51.923 133.645-89.267 37.325-37.338 67.078-81.882 89.267-133.638 22.182-51.757 33.267-106.003 33.267-162.72 0-48.723-7.93-95.398-23.821-140.006-15.878-44.608-38.496-85.088-67.814-121.453l264.365-264c8.966-8.973 13.453-20.006 13.453-33.094 0-13.331-4.41-24.422-13.261-33.28-8.858-8.851-19.949-13.261-33.28-13.261-13.088 0-24.122 4.48-33.094 13.453l-264 264.365c-36.365-29.318-76.845-51.93-121.453-67.814s-91.283-23.821-140.006-23.821c-56.717 0-110.963 11.085-162.72 33.267-51.757 22.189-96.301 51.942-133.638 89.267-37.338 37.338-67.091 81.882-89.267 133.645-22.189 51.757-33.28 106.003-33.28 162.733 0 56.717 11.091 110.963 33.28 162.72 22.176 51.757 51.93 96.301 89.267 133.638 37.338 37.344 81.882 67.091 133.638 89.267 51.757 22.189 106.003 33.28 162.72 33.28zM418.906 866.906c-44.122 0-86.304-8.608-126.541-25.818-40.243-17.203-74.912-40.352-104-69.453-29.101-29.088-52.243-63.75-69.453-104-17.21-40.237-25.818-82.426-25.818-126.541 0-44.128 8.608-86.304 25.818-126.554 17.203-40.237 40.352-74.899 69.453-104 29.088-29.082 63.757-52.23 104-69.446 40.237-17.21 82.426-25.824 126.541-25.824 44.128 0 86.304 8.614 126.554 25.824 40.237 17.21 74.899 40.365 103.994 69.446 29.088 29.101 52.237 63.763 69.453 104 17.21 40.25 25.824 82.432 25.824 126.554s-8.614 86.304-25.824 126.541c-17.21 40.25-40.365 74.912-69.453 104-29.094 29.101-63.757 52.243-103.994 69.453-40.25 17.21-82.426 25.818-126.554 25.818z" />
<glyph unicode="&#xe939;" glyph-name="set" d="M682.656 448c0 47.11-16.666 87.334-49.997 120.672-33.338 33.331-73.555 50.003-120.666 50.003-47.098 0-87.322-16.672-120.666-50.003-33.318-33.338-49.984-73.568-49.984-120.672 0-47.098 16.666-87.328 49.984-120.666 33.35-33.318 73.568-49.997 120.666-49.997 47.11 0 87.334 16.672 120.666 49.997 33.338 33.338 49.997 73.568 49.997 120.666zM1024 520.672v-148c0-5.331-1.786-10.458-5.344-15.334-3.552-4.902-8-7.782-13.318-8.666l-123.334-18.675c-8.442-24-17.114-44.211-26.003-60.666 15.565-22.221 39.328-52.896 71.334-92 4.454-5.344 6.675-10.899 6.675-16.666 0-5.786-2.003-10.886-6.003-15.334-11.994-16.448-34.003-40.448-65.997-72-32-31.558-52.896-47.341-62.675-47.341-5.325 0-11.11 1.997-17.318 6.003l-92.006 72c-19.558-10.221-39.77-18.656-60.666-25.325-7.123-60.442-13.555-101.779-19.341-124-3.117-12.435-11.117-18.669-24.019-18.669h-147.981c-6.221 0-11.674 1.894-16.326 5.683-4.678 3.77-7.232 8.55-7.68 14.323l-18.656 122.669c-21.779 7.117-41.779 15.334-60.013 24.666l-93.99-71.341c-4.442-4.006-10.003-6.003-16.672-6.003-6.214 0-11.77 2.445-16.666 7.341-56.006 50.662-92.666 88-109.997 112-3.117 4.442-4.666 9.542-4.666 15.334 0 5.331 1.76 10.451 5.318 15.328 6.675 9.344 18.010 24.128 34.003 44.346 16.013 20.211 28 35.885 36 47.002-12 22.221-21.107 44.218-27.334 66.003l-121.997 17.99c-5.766 0.89-10.438 3.661-13.984 8.333-3.565 4.678-5.344 9.888-5.344 15.667v147.994c0 5.338 1.779 10.458 5.344 15.354 3.546 4.87 7.763 7.763 12.659 8.653l123.981 18.669c6.24 20.454 14.906 40.89 26.010 61.338-17.773 25.331-41.549 56-71.334 92-4.448 5.331-6.662 10.669-6.662 16 0 4.435 1.997 9.555 5.997 15.334 11.558 16 33.459 39.891 65.67 71.674 32.224 31.77 53.222 47.661 63.002 47.661 5.779 0 11.558-2.221 17.331-6.669l92.006-71.328c19.558 10.214 39.782 18.656 60.666 25.331 7.123 60.435 13.555 101.773 19.334 123.994 3.104 12.435 11.104 18.656 24 18.656h147.981c6.234 0 11.693-1.882 16.346-5.658 4.666-3.776 7.232-8.557 7.667-14.336l18.669-122.662c21.779-7.117 41.773-15.341 59.994-24.672l94.669 71.328c4 4 9.338 6.010 16 6.010 5.779 0 11.334-2.221 16.666-6.669 57.344-52.896 94.003-90.662 110.010-113.331 3.098-3.552 4.653-8.448 4.653-14.669 0-5.331-1.76-10.445-5.318-15.328-6.682-9.331-18.010-24.115-34.016-44.346-16-20.224-27.994-35.891-36-46.995 11.571-22.214 20.678-43.994 27.341-65.338l122.003-18.669c5.773-0.883 10.445-3.661 13.997-8.333 3.552-4.666 5.338-9.882 5.338-15.661v0z" />
<glyph unicode="&#xe93a;" glyph-name="set-line" d="M972.518 554.285l-98.061 19.648c-4.915 14.182-10.726 27.936-17.171 41.248l55.552 83.334c16.928 25.382 13.562 59.206-7.994 80.736l-61.581 61.574c-12.371 12.39-28.73 18.758-45.312 18.758-12.256 0-24.64-3.526-35.424-10.752l-83.322-55.526c-13.37 6.458-27.142 12.224-41.312 17.152l-19.648 98.074c-5.939 29.958-32.262 51.469-62.752 51.469h-87.053c-30.496 0-56.762-21.542-62.739-51.469l-19.648-98.074c-14.189-4.934-27.955-10.72-41.261-17.152l-83.29 55.526c-10.848 7.219-23.2 10.752-35.488 10.752-16.55 0-32.915-6.368-45.28-18.758l-61.549-61.574c-21.536-21.574-24.922-55.354-7.994-80.736l55.539-83.334c-6.477-13.338-12.224-27.091-17.158-41.274l-98.125-19.622c-29.92-5.978-51.45-32.25-51.45-62.746v-87.046c0-30.496 21.53-56.813 51.45-62.765l98.093-19.68c4.915-14.176 10.714-27.936 17.139-41.254l-55.488-83.328c-16.928-25.37-13.542-59.187 7.994-80.723l61.581-61.562c12.39-12.39 28.749-18.765 45.28-18.765 12.288 0 24.666 3.558 35.456 10.771l83.322 55.533c13.357-6.49 27.11-12.262 41.299-17.171l19.61-98.074c5.978-29.958 32.243-51.475 62.739-51.475h87.053c30.496 0 56.794 21.562 62.758 51.475l19.674 98.074c14.176 4.909 27.942 10.733 41.248 17.171l83.322-55.533c10.816-7.213 23.206-10.771 35.424-10.771 16.582 0 32.941 6.374 45.312 18.765l61.581 61.562c21.555 21.568 24.922 55.354 7.994 80.723l-55.552 83.328c6.496 13.402 12.256 27.149 17.171 41.318l98.061 19.616c29.92 5.92 51.482 32.269 51.482 62.765v87.046c0 30.496-21.562 56.768-51.482 62.746zM861.894 384.826c-22.24-4.422-40.442-20.301-47.885-41.747-4.109-11.795-8.909-23.251-14.298-34.362-9.946-20.448-8.256-44.576 4.326-63.43l55.552-83.328-61.562-61.562-83.328 55.552c-10.694 7.13-23.066 10.746-35.488 10.746-9.51 0-19.072-2.106-27.878-6.349-11.136-5.395-22.554-10.266-34.426-14.381-21.382-7.43-37.242-25.638-41.696-47.872l-19.68-98.106h-87.059l-19.61 98.106c-4.435 22.24-20.314 40.442-41.715 47.872-11.827 4.122-23.309 8.934-34.413 14.298-8.819 4.326-18.349 6.432-27.91 6.432-12.429 0-24.794-3.61-35.475-10.746l-83.334-55.552-61.568 61.562 55.52 83.328c12.563 18.893 14.221 43.014 4.397 63.366-5.382 11.13-10.214 22.56-14.336 34.426-7.443 21.382-25.664 37.242-47.866 41.709l-98.099 19.686-0.064 87.066 98.125 19.616c22.202 4.442 40.422 20.307 47.866 41.728 4.122 11.814 8.896 23.296 14.298 34.4 9.914 20.41 8.237 44.55-4.358 63.392l-55.488 83.328 61.549 61.581 83.309-55.526c10.694-7.13 23.085-10.752 35.488-10.752 9.51 0 19.059 2.112 27.891 6.374 11.091 5.37 22.541 10.202 34.374 14.342 21.421 7.411 37.299 25.658 41.734 47.866l19.648 98.080 87.053 0.026 19.61-98.106c4.435-22.208 20.333-40.454 41.76-47.866 11.821-4.141 23.258-8.902 34.362-14.304 8.87-4.294 18.368-6.406 27.942-6.406 12.448 0 24.794 3.622 35.488 10.752l83.322 55.526 61.568-61.581-55.533-83.328c-12.582-18.886-14.195-42.976-4.41-63.36 5.395-11.098 10.266-22.547 14.368-34.4 7.443-21.402 25.651-37.274 47.885-41.728l98.054-19.642 0.096-87.059-98.106-19.667zM512 672.019c-123.68 0-224-100.32-224-224.006 0-123.718 100.32-224.006 224-224.006 123.661 0 224 100.339 224 224.006 0 123.686-100.339 224.006-224 224.006zM512 251.968c-108.211 0-195.994 87.821-195.994 196.013 0 108.224 87.782 196 195.994 196 108.192 0 196.006-87.776 196.006-196 0-108.192-87.814-196.013-196.006-196.013zM512 576.013c-70.72 0-127.994-57.274-127.994-128 0-70.688 57.274-127.987 127.994-127.987 70.688 0 128.006 57.299 128.006 127.987 0 70.694-57.318 128-128.006 128zM512 351.974c-52.992 0-95.994 43.021-95.994 96.006 0 52.992 43.002 95.994 95.994 95.994s96.006-43.002 96.006-95.994c0-52.986-43.014-96.006-96.006-96.006z" />
<glyph unicode="&#xe93b;" glyph-name="sets" d="M477.869 448.262c0 37.498-13.318 69.51-40 96.038-26.675 26.534-58.842 39.795-96.538 39.795-37.683 0-69.856-13.261-96.538-39.795-26.662-26.528-39.981-58.541-39.981-96.038 0-37.491 13.318-69.51 39.981-96.038 26.682-26.528 58.854-39.782 96.538-39.782 37.696 0 69.862 13.254 96.538 39.782 26.682 26.528 40 58.547 40 96.038zM887.462 176.589c0 18.4-6.752 34.323-20.275 47.757-13.504 13.453-29.491 20.166-48 20.166-18.49 0-34.477-6.72-48-20.166-13.504-13.434-20.256-29.357-20.256-47.757 0-18.746 6.662-34.758 19.994-48.006 13.338-13.274 29.44-19.898 48.262-19.898 18.835 0 34.944 6.624 48.275 19.898 13.338 13.248 20 29.261 20 48.006zM887.462 719.93c0 18.4-6.752 34.323-20.275 47.757-13.504 13.446-29.491 20.173-48 20.166-18.49 0-34.477-6.72-48-20.166-13.504-13.434-20.256-29.35-20.256-47.757 0-18.752 6.662-34.746 19.994-48.006 13.338-13.274 29.44-19.898 48.262-19.898 18.835 0 34.944 6.624 48.275 19.898 13.338 13.261 20 29.254 20 48.006zM682.669 496.544v-98.15c0-3.546-1.248-6.995-3.75-10.355-2.483-3.36-5.312-5.216-8.525-5.562l-82.669-12.736c-3.904-12.39-9.6-25.824-17.050-40.333 12.077-16.986 28.090-37.306 48-61.011 2.477-3.539 3.718-7.078 3.718-10.618 0-4.237-1.242-7.603-3.718-10.067-8.186-10.611-22.854-26.451-44.026-47.494-21.158-21.056-35.098-31.584-41.85-31.584-3.917 0-7.648 1.242-11.2 3.718l-61.331 47.757c-13.165-6.733-26.854-12.211-41.075-16.448-3.904-38.208-8-65.626-12.269-82.253-2.49-8.486-7.821-12.723-15.994-12.723h-99.206c-3.898 0-7.456 1.325-10.65 3.974-3.213 2.65-4.979 5.754-5.344 9.286l-12.262 81.184c-12.083 3.546-25.421 9.024-39.994 16.442l-62.944-47.219c-2.502-2.477-6.042-3.718-10.662-3.718-3.904 0-7.648 1.421-11.2 4.25-51.194 47.053-76.8 75.334-76.8 84.896 0 3.194 1.235 6.547 3.731 10.080 3.565 4.96 10.835 14.323 21.875 28.128 11.014 13.792 19.36 24.582 25.056 32.358-8.179 15.578-14.381 30.067-18.662 43.52l-81.075 12.717c-3.558 0.365-6.573 2.035-9.062 5.043-2.496 3.002-3.731 6.458-3.731 10.349v98.17c0 3.526 1.235 6.976 3.731 10.342 2.49 3.36 5.344 5.222 8.538 5.574l82.656 12.736c3.936 12.378 9.6 25.824 17.082 40.314-12.102 16.979-28.090 37.331-48 61.037-2.502 3.891-3.731 7.424-3.731 10.611 0 4.243 1.229 7.776 3.731 10.605 7.814 10.611 22.394 26.362 43.718 47.219 21.344 20.87 35.373 31.302 42.144 31.302 3.904 0 7.635-1.235 11.2-3.706l61.331-47.75c12.083 6.362 25.779 12.019 41.069 16.973 3.91 38.202 8.006 65.446 12.262 81.709 2.483 8.493 7.821 12.742 15.994 12.742h99.206c3.904 0 7.469-1.331 10.675-3.981 3.194-2.662 4.966-5.747 5.318-9.293l12.269-81.184c12.102-3.539 25.421-9.018 40-16.448l62.931 47.219c2.854 2.483 6.406 3.718 10.675 3.718 3.904 0 7.635-1.414 11.194-4.25 51.2-47.040 76.8-75.341 76.8-84.883 0-3.194-1.229-6.554-3.731-10.086-4.269-5.664-11.731-15.213-22.394-28.659-10.675-13.434-18.675-24.051-23.994-31.84 8.16-16.966 14.208-31.475 18.112-43.494l81.062-12.211c3.558-0.704 6.586-2.56 9.069-5.568 2.49-3.014 3.75-6.464 3.75-10.349v0zM1024 213.734v-74.285c0-5.664-26.509-11.13-79.475-16.442-4.256-9.555-9.6-18.752-16-27.603 18.15-39.974 27.2-64.378 27.2-73.216 0-1.421-0.71-2.65-2.131-3.725-43.366-25.101-65.421-37.664-66.131-37.664-2.842 0-11.014 8.32-24.544 24.941-13.504 16.614-22.746 28.646-27.725 36.070-7.098-0.698-12.429-1.062-16.006-1.062-3.558 0-8.89 0.365-15.987 1.062-4.979-7.424-14.221-19.456-27.731-36.070-13.517-16.627-21.696-24.941-24.538-24.941-0.71 0-22.765 12.563-66.131 37.664-1.421 1.075-2.131 2.304-2.131 3.725 0 8.845 9.050 33.242 27.2 73.216-6.406 8.851-11.738 18.042-16.006 27.603-52.979 5.312-79.469 10.79-79.469 16.442v74.285c0 5.664 26.49 11.142 79.469 16.442 4.621 10.259 9.952 19.456 16.006 27.597-18.15 39.974-27.2 64.378-27.2 73.229 0 1.402 0.71 2.65 2.131 3.699 1.427 0.71 7.648 4.25 18.662 10.611 11.027 6.368 21.51 12.384 31.462 18.042 9.965 5.67 15.296 8.493 16.006 8.493 2.842 0 11.021-8.23 24.538-24.672 13.51-16.448 22.752-28.39 27.731-35.821 7.098 0.717 12.429 1.056 15.987 1.056 3.578 0 8.909-0.339 16.019-1.056 18.125 25.12 34.483 44.928 49.062 59.418l3.194 1.075c1.427 0 23.456-12.384 66.144-37.152 1.408-1.050 2.118-2.298 2.118-3.699 0-8.864-9.050-33.254-27.2-73.229 6.054-8.134 11.379-17.338 16-27.597 52.966-5.286 79.475-10.771 79.475-16.435v0zM1024 757.075v-74.285c0-5.658-26.509-11.142-79.475-16.448-4.256-9.555-9.6-18.752-16-27.584 18.15-39.987 27.2-64.39 27.2-73.229 0-1.421-0.71-2.656-2.131-3.718-43.366-25.114-65.421-37.67-66.131-37.67-2.842 0-11.014 8.32-24.544 24.941-13.504 16.621-22.746 28.646-27.725 36.077-7.098-0.698-12.429-1.069-16.006-1.069-3.558 0-8.89 0.365-15.987 1.069-4.979-7.43-14.221-19.456-27.731-36.077-13.517-16.627-21.696-24.941-24.538-24.941-0.71 0-22.765 12.557-66.131 37.67-1.421 1.069-2.131 2.298-2.131 3.718 0 8.845 9.050 33.254 27.2 73.229-6.406 8.832-11.738 18.029-16.006 27.584-52.979 5.306-79.469 10.797-79.469 16.448v74.285c0 5.664 26.49 11.142 79.469 16.454 4.621 10.259 9.952 19.45 16.006 27.584-18.15 39.974-27.2 64.384-27.2 73.222 0 1.414 0.71 2.656 2.131 3.712 1.427 0.717 7.648 4.25 18.662 10.618 11.027 6.368 21.51 12.378 31.462 18.042 9.965 5.658 15.296 8.486 16.006 8.493 2.842 0 11.021-8.23 24.538-24.678 13.51-16.435 22.752-28.39 27.731-35.814 7.098 0.71 12.429 1.062 15.987 1.062 3.578 0 8.909-0.352 16.019-1.062 18.125 25.12 34.483 44.915 49.062 59.43l3.194 1.062c1.427 0 23.456-12.384 66.144-37.139 1.408-1.069 2.118-2.304 2.118-3.718 0-8.845-9.050-33.254-27.2-73.222 6.054-8.134 11.379-17.331 16-27.59 52.966-5.312 79.475-10.79 79.475-16.454v0z" />
<glyph unicode="&#xe93c;" glyph-name="share" d="M819.2 235.693c-38.925 0-73.99-15.162-100.627-39.578l-364.774 213.587c2.81 11.565 4.602 23.642 4.602 35.974 0 12.346-1.779 24.429-4.602 35.987l360.941 211.539c27.392-25.696 63.994-41.632 104.454-41.632 84.723 0 153.6 69.139 153.6 154.202 0.006 85.069-68.87 154.227-153.594 154.227-84.742 0-153.606-69.158-153.606-154.234 0-12.326 1.779-24.403 4.608-35.962l-360.954-211.539c-27.386 25.709-64 41.638-104.435 41.638-84.742-0.006-153.613-69.133-153.613-154.227 0-85.056 68.87-154.208 153.613-154.208 40.435 0 77.037 15.942 104.435 41.651l364.8-213.6c-2.566-10.803-4.115-22.093-4.115-33.67 0-82.752 66.822-149.85 149.261-149.85 82.419 0 149.242 67.098 149.242 149.85 0.006 82.771-66.816 149.843-149.235 149.843v0z" />
<glyph unicode="&#xe93d;" glyph-name="shop-line" d="M1006.938 599.469l-96 127.949c-3.738 5.011-8.186 9.357-12.787 13.51v152.941c0 35.334-28.678 64-64.013 64h-640c-35.36 0-64-28.659-64-64v-152.966c-4.614-4.128-9.062-8.448-12.8-13.434l-95.974-127.974c-12.403-16.506-19.226-36.973-19.226-57.632v-32.006c0-52.922 43.066-95.994 96-95.994v0-416c0-35.328 28.672-64 64.006-64h703.994c35.328 0 64 28.672 64 64v416c52.934 0 96 43.072 96 95.994v32.006c0 20.659-6.803 41.126-19.2 57.606zM834.138 893.869v-128h-640v128h640zM328.314 477.869h-134.042l127.987 224h70.048l-63.994-224zM425.619 701.869h72.518v-224h-136.518l64 224zM530.138 701.869h72.518l63.994-224h-136.512v224zM635.891 701.869h70.054l128.006-224h-134.048l-64.013 224zM66.144 509.856v32.006c0 6.938 2.24 13.664 6.381 19.2l96.006 127.994c6.048 8.070 15.52 12.806 25.606 12.806h91.264l-128-224h-59.264c-17.664 0.006-31.994 14.304-31.994 31.994zM642.138-2.138h-240v320h240v-320zM866.138-2.138h-191.994v320c0 17.709-14.368 32-32.006 32h-240c-17.664 0-31.994-14.291-31.994-32v-320h-208v416h703.994v-416zM962.138 509.856c0-17.69-14.304-31.994-32-31.994h-59.328l-128 224h91.328c10.054 0 19.558-4.736 25.574-12.806l96-127.994c4.173-5.542 6.426-12.262 6.426-19.2v-32.006z" />
<glyph unicode="&#xe93e;" glyph-name="star-full" d="M1026.227 562.202l-353.779 52.026-158.221 324.442-158.221-324.442-353.779-52.026 256.006-252.544-60.435-356.589 316.429 168.358 316.429-168.358-60.422 356.589 255.994 252.544z" />
<glyph unicode="&#xe93f;" glyph-name="star-half" d="M1024 564.333l-353.779 52.038-158.221 324.429-158.221-324.429-353.779-52.038 256-252.538-60.429-356.595 316.429 168.352 316.416-168.352-60.422 356.595 256.006 252.538zM512 203.597l-0.941-0.499 0.941 577.632 111.731-229.126 249.837-36.73-180.781-178.342 42.669-251.827-223.456 118.893z" />
<glyph unicode="&#xe940;" glyph-name="star-line" d="M1024 564.333l-353.779 52.026-158.221 324.442-158.221-324.442-353.779-52.026 256-252.544-60.429-356.589 316.429 168.358 316.429-168.358-60.429 356.589 256 252.544zM512 216.262l-225.466-120.262 43.066 254.72-182.4 180.384 252.070 37.146 112.73 231.75 112.736-231.75 252.064-37.146-182.4-180.384 43.053-254.72-225.453 120.262z" />
<glyph unicode="&#xe941;" glyph-name="store-mall" d="M892.602 927.354c-9.158 18.022-32.973 32.646-53.178 32.646h-654.291c-20.186 0-44.026-14.592-53.216-32.634l-131.917-258.298h1024l-131.398 258.285zM1.133 564.262c0-51.187 29.197-95.411 72.006-116.192v-365.446c-40.384 0-73.139-32.832-73.139-73.318s32.755-73.306 73.139-73.306h877.728c40.384 0 73.139 32.819 73.139 73.306 0 40.506-32.755 73.318-73.139 73.318v365.338c43.264 20.749 73.133 65.024 73.133 116.301v31.501h-1023.213c0 0 0.346-29.011 0.346-31.501zM658.285 435.622c58.298 8.602 103.885 56.416 109.203 115.853 5.811-59.296 51.75-106.79 110.221-114.867v-353.99h-219.424v353.005zM146.266 436.614c58.669 8.109 104.704 55.872 110.304 115.424 6.138-65.434 61.107-116.646 127.987-116.646 64.986 0 118.694 48.32 127.373 111.040 5.715-44.486 34.125-81.894 73.203-100.173v-217.043h-438.867v207.398z" />
<glyph unicode="&#xe942;" glyph-name="tools" d="M286.413 494.995c16.845-16.806 81.766-85.28 81.766-85.28l35.987 37.088-56.403 58.259 108.275 114.931c0 0-48.883 47.629-27.482 28.653 20.448 75.898 1.805 160.582-55.878 220.23-57.197 59.2-138.464 78.592-211.475 58.208l123.738-127.706-32.544-125.299-121.139-33.453-123.674 127.757c-19.725-75.456-0.966-159.328 56.352-218.56 60.128-62.125 146.707-80.397 222.477-54.842v0.013zM698.925 370.771l-149.203-147.302 246.086-254.797c20.077-20.819 46.522-31.187 72.915-31.187 26.266 0 52.666 10.368 72.864 31.187 40.282 41.626 40.282 108.986 0 150.618l-242.662 251.482zM1024 798.182l-156.71 161.818-461.958-477.286 56.403-58.234-276.506-285.619-63.194-33.76-89.274-145.555 22.733-23.546 140.922 92.23 32.672 65.312 276.512 285.555 56.429-58.246 461.971 477.331z" />
<glyph unicode="&#xe943;" glyph-name="trash" d="M256.006 768c0 66.4 29.638 192 141.715 192h292.57c112.096 0 141.734-125.6 141.734-192h-576.019zM872.403 67.962c-27.93-130.464-118.835-131.962-122.682-131.962h-388.595c-92.742 0-135.77 86.33-145.542 131.962l-0.704 5.261-22.842 501.306 159.968 0.218v-510.746h64.006v510.829l96 0.141v-510.97h63.994v511.066l96 0.122v-511.187h64.006v511.277l159.981 0.218c-0.282-17.523-6.963-429.933-23.59-507.533zM960.006 736.006c35.328 0 63.994-28.653 63.994-63.994 0-35.36-28.666-64.006-63.994-64.006h-896c-35.347 0-64.006 28.646-64.006 64.006 0 35.341 28.659 63.994 64.006 63.994h896z" />
<glyph unicode="&#xe944;" glyph-name="trashcan" d="M384.576 554.662v-384c0-6.227-1.99-11.328-5.965-15.328-3.994-4.013-9.075-6.010-15.27-6.010h-42.477c-6.195 0-11.283 2.003-15.264 6.010-3.987 4-5.971 9.101-5.971 15.328v384c0 6.227 1.984 11.334 5.971 15.334s9.075 6.003 15.27 6.003h42.477c6.195 0 11.277-2.003 15.27-6.003 3.968-4 5.958-9.107 5.958-15.334v0zM554.477 554.662v-384c0-6.227-2.003-11.328-5.978-15.328-3.987-4.013-9.075-6.010-15.264-6.010h-42.483c-6.182 0-11.283 2.003-15.264 6.010-3.974 4-5.978 9.101-5.978 15.328v384c0 6.227 2.003 11.334 5.978 15.334 3.987 4 9.088 6.003 15.27 6.003h42.483c6.189 0 11.277-2.003 15.264-6.003 3.968-4 5.971-9.107 5.971-15.334v0zM724.358 554.662v-384c0-6.227-1.984-11.328-5.971-15.328-3.981-4.013-9.069-6.010-15.264-6.010h-42.477c-6.195 0-11.277 2.003-15.264 6.010-3.981 4-5.978 9.101-5.978 15.328v384c0 6.227 1.997 11.334 5.978 15.334 3.987 4 9.069 6.003 15.264 6.003h42.477c6.195 0 11.283-2.003 15.264-6.003 3.987-4 5.971-9.107 5.971-15.334v0zM809.306 72v631.987h-594.618v-631.987c0-9.786 1.549-18.778 4.646-27.002s6.304-14.227 9.626-18.003 5.645-5.677 6.97-5.677h552.141c1.331 0 3.654 1.901 6.97 5.677 3.328 3.776 6.528 9.773 9.626 18.003 3.091 8.224 4.64 17.216 4.64 27.002v0zM363.347 789.325h297.299l-31.846 78.003c-3.091 4.013-6.867 6.451-11.29 7.334h-210.374c-4.422-0.89-8.173-3.328-11.283-7.334l-32.506-78.003zM979.2 768v-42.675c0-6.214-1.997-11.328-5.978-15.328s-9.069-5.997-15.258-5.997h-63.712v-632c0-36.902-10.394-68.787-31.187-95.674-20.787-26.874-45.792-40.326-74.995-40.326h-552.147c-29.203 0-54.208 12.998-74.995 39.002-20.794 26.003-31.194 57.453-31.194 94.336v634.662h-63.706c-6.195 0-11.283 2.003-15.264 6.003-3.981 3.994-5.965 9.107-5.965 15.322v42.675c0 6.214 1.984 11.328 5.971 15.334 3.981 3.987 9.069 6.003 15.264 6.003h205.069l46.458 111.328c6.63 16.448 18.573 30.451 35.834 42.003 17.248 11.558 34.726 17.331 52.416 17.331h212.371c17.696 0 35.168-5.773 52.422-17.338 17.254-11.552 29.203-25.549 35.834-42.003l46.458-111.328h205.069c6.195 0 11.283-2.010 15.264-6.003 3.974-4 5.971-9.114 5.971-15.328v0z" />
<glyph unicode="&#xe945;" glyph-name="upload" d="M921.6 140.8v-102.4h-819.2v102.4h-102.4v-204.8h1024v204.8zM863.085 608l-351.085 354.816-351.085-354.816h216.685v-416h249.6v416z" />
<glyph unicode="&#xe946;" glyph-name="warning" d="M1019.181 54.682c2.406-4.896 4.819-9.786 4.819-17.114 0-24.429-21.683-43.968-45.786-43.968v0h-934.842c-24.090 0-43.373 19.539-43.373 43.968 0 9.76 2.406 21.978 9.632 29.318v0l460.192 808.646h2.426c7.232 14.65 19.27 26.867 38.554 26.867 16.851 0 31.315-7.334 38.547-21.984l465.018-815.968c0-2.458 2.406-2.458 2.406-4.909l2.406-4.858zM513.203 76.659c33.734 0 62.662 29.325 62.662 65.958 0 36.659-28.934 63.539-62.662 63.539-36.134 0-65.050-26.88-65.050-63.539-0.006-36.634 28.915-65.958 65.050-65.958zM575.866 645.882v0 0 0 0c0 14.662-12.058 24.429-26.515 24.429v0h-77.101c-12.058 0-24.102-9.766-24.102-24.429v-354.227c0-14.682 12.045-26.886 26.502-26.886h74.701c14.458 0 26.515 12.205 26.515 26.886v0 0 354.227z" />
<glyph unicode="&#xe947;" glyph-name="angle-double-down" d="M140.8 460.301c0 6.656 2.477 12.55 7.43 17.677l37.203 38.426c4.954 5.126 10.656 7.68 17.101 7.68 6.458 0 12.147-2.554 17.114-7.68l292.346-302.029 292.358 302.029c4.96 5.126 10.656 7.68 17.107 7.68s12.147-2.554 17.107-7.68l37.203-38.426c4.954-5.126 7.43-11.021 7.43-17.677 0-6.669-2.477-12.563-7.43-17.677l-346.669-358.144c-4.947-5.12-10.65-7.68-17.094-7.68-6.451 0-12.147 2.56-17.107 7.68l-346.669 358.144c-4.954 5.114-7.43 11.008-7.43 17.677v0zM140.8 755.418c0 6.656 2.477 12.55 7.43 17.67l37.203 38.432c4.954 5.12 10.656 7.68 17.101 7.68 6.458 0 12.147-2.56 17.114-7.68l292.346-302.029 292.358 302.029c4.96 5.12 10.656 7.68 17.107 7.68s12.147-2.56 17.107-7.68l37.203-38.432c4.954-5.12 7.43-11.008 7.43-17.67 0-6.669-2.477-12.563-7.43-17.69l-346.669-358.131c-4.947-5.126-10.65-7.674-17.094-7.674-6.451 0-12.147 2.547-17.107 7.674l-346.669 358.138c-4.954 5.12-7.43 11.014-7.43 17.683v0z" />
<glyph unicode="&#xe948;" glyph-name="angle-double-left" d="M140.806 448c0 6.451 2.56 12.141 7.68 17.114l358.138 346.65c5.12 4.96 11.008 7.437 17.67 7.437s12.544-2.477 17.677-7.437l38.432-37.197c5.126-4.954 7.68-10.656 7.68-17.114 0-6.445-2.554-12.141-7.68-17.101l-302.035-292.352 302.029-292.352c5.126-4.954 7.68-10.656 7.68-17.101 0-6.464-2.554-12.16-7.68-17.114l-38.432-37.203c-5.126-4.954-11.014-7.43-17.677-7.43s-12.557 2.477-17.677 7.43l-358.125 346.656c-5.126 4.966-7.686 10.662-7.68 17.114v0zM435.917 448c0 6.451 2.554 12.141 7.68 17.114l358.131 346.65c5.126 4.96 11.014 7.437 17.683 7.437 6.656 0 12.55-2.477 17.677-7.437l38.426-37.197c5.12-4.954 7.686-10.656 7.686-17.114 0-6.445-2.566-12.141-7.686-17.101l-302.035-292.352 302.029-292.352c5.12-4.954 7.686-10.656 7.686-17.101 0-6.464-2.566-12.16-7.686-17.114l-38.426-37.203c-5.126-4.954-11.021-7.43-17.677-7.43-6.669 0-12.557 2.477-17.683 7.43l-358.118 346.656c-5.126 4.966-7.686 10.662-7.686 17.114v0z" />
<glyph unicode="&#xe949;" glyph-name="angle-double-right" d="M140.8 138.534c0 6.445 2.566 12.147 7.686 17.107l302.035 292.358-302.029 292.346c-5.126 4.96-7.693 10.65-7.693 17.107s2.566 12.154 7.686 17.12l38.419 37.203c5.133 4.941 11.021 7.424 17.683 7.424s12.557-2.483 17.683-7.43l358.138-346.662c5.12-4.96 7.686-10.662 7.686-17.107 0-6.458-2.566-12.141-7.686-17.107l-358.138-346.662c-5.126-4.954-11.021-7.43-17.683-7.43s-12.55 2.477-17.677 7.43l-38.426 37.203c-5.12 4.96-7.686 10.662-7.686 17.101v0zM435.91 138.534c0 6.445 2.56 12.147 7.693 17.107l302.029 292.358-302.029 292.346c-5.126 4.96-7.693 10.65-7.693 17.107s2.56 12.154 7.693 17.12l38.419 37.203c5.133 4.941 11.014 7.424 17.677 7.424s12.557-2.483 17.683-7.43l358.131-346.662c5.126-4.966 7.686-10.662 7.686-17.107 0-6.458-2.56-12.141-7.686-17.107l-358.138-346.662c-5.12-4.954-11.014-7.43-17.67-7.43-6.662 0-12.55 2.477-17.683 7.43l-38.419 37.203c-5.126 4.96-7.693 10.662-7.693 17.101v0z" />
<glyph unicode="&#xe94a;" glyph-name="angle-double-up" d="M140.8 140.582c0 6.662 2.477 12.544 7.437 17.683l346.65 358.138c4.96 5.126 10.662 7.686 17.114 7.686s12.147-2.56 17.114-7.686l346.637-358.138c4.96-5.126 7.45-11.021 7.45-17.683 0-6.65-2.49-12.557-7.45-17.67l-37.197-38.438c-4.954-5.12-10.656-7.674-17.101-7.674-6.458 0-12.154 2.554-17.12 7.674l-292.352 302.048-292.346-302.048c-4.954-5.12-10.65-7.674-17.107-7.674s-12.147 2.554-17.107 7.674l-37.197 38.438c-4.947 5.114-7.424 11.021-7.424 17.67v0zM140.8 435.699c0 6.662 2.477 12.563 7.437 17.677l346.65 358.15c4.966 5.12 10.662 7.674 17.114 7.674s12.147-2.554 17.114-7.674l346.637-358.15c4.96-5.114 7.45-11.014 7.45-17.677 0-6.656-2.49-12.544-7.45-17.683l-37.197-38.419c-4.954-5.126-10.656-7.686-17.101-7.686-6.458 0-12.154 2.56-17.12 7.686l-292.352 302.035-292.339-302.035c-4.954-5.126-10.65-7.686-17.107-7.686s-12.147 2.56-17.107 7.686l-37.197 38.419c-4.954 5.139-7.43 11.027-7.43 17.683v0z" />
<glyph unicode="&#xe94b;" glyph-name="arrow-down" d="M192 311.789h206.022v590.611h227.949v-590.611h206.029l-320-318.189-320 318.189z" />
<glyph unicode="&#xe94c;" glyph-name="arrow-down-lg" d="M120.026 674.458c-14.317 13.786-37.459 13.786-51.725 0-14.266-13.734-14.266-36.090 0-49.875l417.818-403.027c14.33-13.805 37.421-13.805 51.738 0l417.83 403.027c14.259 13.786 14.31 36.077 0 49.875-14.323 13.786-37.51 13.786-51.738 0.051l-391.987-367.565-391.936 367.514z" />
<glyph unicode="&#xe94d;" glyph-name="arrow-down-sm" d="M905.274 550.752c-29.203-29.894-336.762-322.067-336.762-322.067-15.629-15.955-36.083-23.885-56.512-23.885-20.518 0-40.96 7.93-56.518 23.878 0 0-307.565 292.173-336.826 322.067-29.203 29.901-31.206 83.603 0 115.578 31.27 31.898 74.81 34.406 113.037 0l280.307-268.064 280.23 268c38.298 34.406 81.901 31.891 113.037 0 31.264-31.904 29.338-85.69 0.006-115.507v0z" />
<glyph unicode="&#xe94e;" glyph-name="arrow-left" d="M57.6 448l318.182 320v-206.016h590.618v-227.955h-590.618v-206.029l-318.182 320z" />
<glyph unicode="&#xe94f;" glyph-name="arrow-left-lg" d="M738.464 56.064c13.786-14.317 13.786-37.414 0-51.718-13.798-14.323-36.083-14.323-49.875 0l-403.046 417.754c-13.792 14.323-13.792 37.466 0 51.731l403.046 417.824c13.779 14.323 36.077 14.323 49.875 0 13.786-14.31 13.786-37.402 0-51.718l-367.52-391.942 367.52-391.93z" />
<glyph unicode="&#xe950;" glyph-name="arrow-left-sm" d="M609.37 823.174c-28.339-27.923-305.139-321.274-305.139-321.274-15.104-14.925-22.63-34.413-22.63-53.914 0-19.514 7.526-39.002 22.63-53.914 0 0 276.813-293.363 305.139-321.21 28.333-27.91 79.296-29.837 109.53 0 30.157 29.76 32.525 71.29-0.077 107.75l-253.958 267.373 253.965 267.36c32.595 36.525 30.234 78.061 0.077 107.827-30.317 29.754-81.28 27.898-109.536 0z" />
<glyph unicode="&#xe951;" glyph-name="arrow-right" d="M57.6 334.022v227.962h590.618v206.016l318.182-320-318.182-320v206.022h-590.618z" />
<glyph unicode="&#xe952;" glyph-name="arrow-right-lg" d="M285.536 56.070c-13.786-14.317-13.786-37.408 0-51.731 13.798-14.317 36.083-14.317 49.875 0l403.046 417.773c13.792 14.317 13.792 37.459 0 51.725l-403.046 417.824c-13.792 14.317-36.077 14.317-49.875 0-13.786-14.323-13.786-37.414 0-51.731l367.526-391.93-367.526-391.93z" />
<glyph unicode="&#xe953;" glyph-name="arrow-right-sm" d="M414.662 823.168c28.32-27.904 305.037-321.267 305.037-321.267 15.181-14.918 22.701-34.419 22.701-53.926 0-19.488-7.52-38.995-22.701-53.907 0 0-276.717-293.37-305.037-321.203-28.333-27.91-79.213-29.83-109.498 0-30.221 29.76-32.595 71.29 0 107.75l253.965 267.36-253.901 267.36c-32.589 36.544-30.221 78.067 0 107.834 30.227 29.766 81.178 27.91 109.434 0v0z" />
<glyph unicode="&#xe954;" glyph-name="arrow-up" d="M192 584.211l320 318.189 320-318.189h-206.022v-590.611h-227.955v590.611h-206.022z" />
<glyph unicode="&#xe955;" glyph-name="arrow-up-lg" d="M903.936 221.549c14.304-13.792 37.466-13.792 51.718 0 14.317 13.792 14.317 36.090 0 49.869l-417.824 403.040c-14.266 13.786-37.414 13.786-51.686 0l-417.824-403.040c-14.266-13.779-14.317-36.077 0-49.869 14.31-13.805 37.389-13.792 51.725 0l391.949 367.558 391.942-367.558z" />
<glyph unicode="&#xe956;" glyph-name="arrow-up-sm" d="M905.267 345.235c-29.203 29.901-336.749 322.003-336.749 322.003-15.642 15.942-36.077 23.962-56.518 23.962-20.518 0-40.96-8.019-56.531-23.962 0 0-307.552-292.102-336.813-322.003-29.197-29.894-31.206-83.68 0-115.578 31.27-31.846 74.81-34.426 113.037 0l280.301 267.987 280.218-267.987c38.31-34.426 81.933-31.846 113.050 0 31.277 31.968 29.338 85.754 0.006 115.578v0z" />
<glyph unicode="&#xe957;" glyph-name="triangle-down" d="M64 672l448-448 448 448h-896z" />
<glyph unicode="&#xe958;" glyph-name="triangle-left" d="M288 448l448-448v896l-448-448z" />
<glyph unicode="&#xe959;" glyph-name="triangle-right" d="M288 896l448-448-448-448v896z" />
<glyph unicode="&#xe95a;" glyph-name="triangle-up" d="M512 672l-448-448h896l-448 448z" />
<glyph unicode="&#xe95b;" glyph-name="chart-area" d="M0-64v1024h103.117v-920.89h920.883v-103.11h-1024zM141.491 448h11.994v-12.595h-11.994v12.595zM141.491 653.037h11.994v-13.786h-11.994v13.786zM141.491 856.877h11.994v-12.589h-11.994v12.589zM153.485 121.677v213.44c0 12.794 5.395 22.592 16.179 29.382l236.806 237.408c6.803 10.4 16.595 15.597 29.382 15.597 12.397 0 21.779-4.397 28.179-13.197l35.974-35.962v12.582h11.994v-12.589h-11.987l101.926-101.926v12.595h11.987v-12.595h-11.987l11.987-13.19 348.928 348.934c5.6 5.6 11.981 8.89 19.187 9.888 7.187 0.998 13.888 0.205 20.077-2.394 6.202-2.598 11.392-6.694 15.597-12.294 4.198-5.594 6.291-12.192 6.291-19.789v-2.394l-1.203-653.478-869.318-0.019zM193.050 448h11.994v-12.595h-11.994v12.595zM193.050 653.037h11.994v-13.786h-11.994v13.786zM193.050 856.877h11.994v-12.589h-11.994v12.589zM242.81 448h13.792v-12.595h-13.792v12.595zM242.81 653.037h13.792v-13.786h-13.792v13.786zM242.81 856.877h13.792v-12.589h-13.792v12.589zM294.97 499.558h11.987v-13.792h-11.987v13.792zM294.97 549.914h11.987v-12.582h-11.987v12.582zM294.97 601.478h11.987v-12.589h-11.987v12.589zM294.97 653.037h11.987v-13.786h-11.987v13.786zM294.97 703.398h11.987v-12.589h-11.987v12.589zM294.97 754.95h11.987v-12.582h-11.987v12.582zM294.97 806.522h11.987v-13.792h-11.987v13.792zM294.97 856.877h11.987v-12.589h-11.987v12.589zM294.97 908.442h11.987v-12.589h-11.987v12.589zM346.534 653.037h11.994v-13.786h-11.994v13.786zM346.534 856.877h11.994v-12.589h-11.994v12.589zM396.294 653.037h13.786v-13.786h-13.786v13.786zM396.294 856.877h13.786v-12.589h-13.786v12.589zM448.448 653.037h11.987v-13.786h-11.987v13.786zM448.448 856.877h11.987v-12.589h-11.987v12.589zM500.013 601.478h11.994v-12.589h-11.994v12.589zM500.013 653.037h11.994v-13.786h-11.994v13.786zM500.013 703.398h11.994v-12.589h-11.994v12.589zM500.013 754.95h11.994v-12.582h-11.994v12.582zM500.013 806.522h11.994v-13.792h-11.994v13.792zM500.013 856.877h11.994v-12.589h-11.994v12.589zM500.013 908.442h11.994v-12.589h-11.994v12.589zM549.779 653.037h13.779v-13.786h-13.779v13.786zM549.779 856.877h13.779v-12.589h-13.779v12.589zM601.939 653.037h11.994v-13.786h-11.994v13.786zM601.939 856.877h11.994v-12.589h-11.994v12.589zM653.491 653.037h11.981v-13.786h-11.981v13.786zM653.491 856.877h11.981v-12.589h-11.981v12.589zM703.258 549.914h13.786v-12.582h-13.786v12.582zM703.258 601.478h13.786v-12.589h-13.786v12.589zM703.258 653.037h13.786v-13.786h-13.786v13.786zM703.258 703.398h13.786v-12.589h-13.786v12.589zM703.258 754.95h13.786v-12.582h-13.786v12.582zM703.258 806.522h13.786v-13.792h-13.786v13.792zM703.258 856.877h13.786v-12.589h-13.786v12.589zM703.258 908.442h13.786v-12.589h-13.786v12.589zM755.424 653.037h11.974v-13.786h-11.974v13.786zM755.424 856.877h11.974v-12.589h-11.974v12.589zM806.97 653.037h11.994v-13.786h-11.994v13.786zM806.97 856.877h11.994v-12.589h-11.994v12.589zM856.736 856.877h13.792v-12.589h-13.792v12.589zM908.896 754.95h11.987v-12.582h-11.987v12.582zM908.896 806.522h11.987v-13.792h-11.987v13.792zM908.896 856.877h11.987v-12.589h-11.987v12.589zM908.896 908.442h11.987v-12.589h-11.987v12.589zM960.448 856.877h12v-12.589h-12v12.589z" />
<glyph unicode="&#xe95c;" glyph-name="chart-down" d="M90.912 959.994h-46.112v-1023.994h934.4v42.874l-887.494 2.227-0.794 978.893zM418.554 567.674l-233.6 222.611v-720.717h233.6v498.106zM465.274 598.259v-528.685h233.613v573.21l-93.44 89.037-140.173-133.562zM745.606 470.266v-400.691h233.594v400.691h-233.594zM611.002 854.438l244.909-234.138-68.531-61.882 191.693-1.965-0.902 176.346-82.739-76.531-284.333 274.918-174.963-168.595-201.696 192.064-40.973-40.563 239.341-230.086 178.195 170.432z" />
<glyph unicode="&#xe95d;" glyph-name="chart-image" d="M161.171 125.946v256.218l127.661 128.096 127.654-128.096 255.322 256.198 352.192-256.198v-256.218zM1023.251 38.4h-920.851v921.549l-102.4-103.43v-920.518h920.896z" />
<glyph unicode="&#xe95e;" glyph-name="chart-line" d="M0-64v1024h103.11v-920.89h920.89v-103.11h-1024zM141.485 230.374v12.589h11.994v-12.589h-11.994zM141.485 435.398v12.602h11.994v-12.602h-11.994zM141.485 639.251v13.792h11.994v-13.792h-11.994zM141.485 844.288v12.589h11.994v-12.589h-11.994zM153.478 304.109c0 12.794 5.389 22.579 16.186 29.382l236.813 237.414c6.803 10.4 16.595 15.597 29.376 15.597 12.397 0 21.786-4.403 28.179-13.203l35.981-35.968v12.595h11.987v-12.595h-11.987l101.92-101.92v12.589h11.987v-12.589h-11.987l11.987-13.203 348.922 348.934c5.606 5.6 11.981 8.89 19.187 9.894 7.194 0.998 13.888 0.205 20.083-2.394 6.202-2.611 11.386-6.701 15.584-12.301 4.218-5.594 6.304-12.192 6.304-19.782 0-9.184-3.603-18.182-10.79-26.97l-373.517-372.314c-7.187-7.2-15.776-10.79-25.773-10.79-11.597 0-20.582 4.403-26.982 13.19l-85.728 85.734h-1.197v1.786l-64.16 62.362-221.222-221.222c-3.597-3.61-7.597-6.106-11.994-7.501-4.397-1.402-8.992-2.086-13.792-2.086-9.99 0-18.381 3.386-25.178 10.189-6.784 6.79-10.189 15.187-10.189 25.171v0zM193.050 230.374v12.589h11.987v-12.589h-11.987zM193.050 435.398v12.602h11.987v-12.602h-11.987zM193.050 639.251v13.792h11.987v-13.792h-11.987zM193.050 844.288v12.589h11.987v-12.589h-11.987zM242.803 230.374v12.589h13.792v-12.589h-13.792zM242.803 435.398v12.602h13.792v-12.602h-13.792zM242.803 639.251v13.792h13.792v-13.792h-13.792zM242.803 844.288v12.589h13.792v-12.589h-13.792zM294.963 178.81v13.773h11.994v-13.773h-11.994zM294.963 141.043h11.994v-12.595h-11.994v12.595zM294.963 230.374v12.589h11.994v-12.589h-11.994zM294.963 89.472h11.994v-12.582h-11.994v12.582zM294.963 281.939v12.576h11.994v-12.576h-11.994zM294.963 332.288v13.786h11.994v-13.786h-11.994zM294.963 485.773v13.773h11.994v-13.773h-11.994zM294.963 537.331v12.582h11.994v-12.582h-11.994zM294.963 588.89v12.595h11.994v-12.595h-11.994zM294.963 639.251v13.792h11.994v-13.792h-11.994zM294.963 690.803v12.602h11.994v-12.602h-11.994zM294.963 742.362v12.595h11.994v-12.595h-11.994zM294.963 792.73v13.786h11.994v-13.786h-11.994zM294.963 844.288v12.589h11.994v-12.589h-11.994zM294.963 895.846v12.595h11.994v-12.595h-11.994zM346.534 230.374v12.589h11.994v-12.589h-11.994zM346.534 639.251v13.792h11.994v-13.792h-11.994zM346.534 844.288v12.589h11.994v-12.589h-11.994zM396.288 230.374v12.589h13.786v-12.589h-13.786zM396.288 435.398v12.602h13.786v-12.602h-13.786zM396.288 639.251v13.792h13.786v-13.792h-13.786zM396.288 844.288v12.589h13.786v-12.589h-13.786zM448.448 230.374v12.589h11.994v-12.589h-11.994zM448.448 435.398v12.602h11.994v-12.602h-11.994zM448.448 639.251v13.792h11.994v-13.792h-11.994zM448.448 844.288v12.589h11.994v-12.589h-11.994zM500.006 178.81v13.773h11.994v-13.773h-11.994zM500.006 141.043h11.994v-12.595h-11.994v12.595zM500.006 230.374v12.589h11.994v-12.589h-11.994zM500.006 89.472h11.994v-12.582h-11.994v12.582zM500.006 281.939v12.576h11.994v-12.576h-11.994zM500.006 332.288v13.786h11.994v-13.786h-11.994zM500.006 383.846v12.589h11.994v-12.589h-11.994zM500.006 588.89v12.595h11.994v-12.595h-11.994zM500.006 639.251v13.792h11.994v-13.792h-11.994zM500.006 690.803v12.602h11.994v-12.602h-11.994zM500.006 742.362v12.595h11.994v-12.595h-11.994zM500.006 792.73v13.786h11.994v-13.786h-11.994zM500.006 844.288v12.589h11.994v-12.589h-11.994zM500.006 895.846v12.595h11.994v-12.595h-11.994zM549.773 230.374v12.589h13.786v-12.589h-13.786zM549.773 639.251v13.792h13.786v-13.792h-13.786zM549.773 844.288v12.589h13.786v-12.589h-13.786zM601.939 230.374v12.589h11.987v-12.589h-11.987zM601.939 639.251v13.792h11.987v-13.792h-11.987zM601.939 844.288v12.589h11.987v-12.589h-11.987zM653.485 230.374v12.589h11.987v-12.589h-11.987zM653.485 639.251v13.792h11.987v-13.792h-11.987zM653.485 844.288v12.589h11.987v-12.589h-11.987zM703.238 178.81v13.773h13.805v-13.773h-13.805zM703.238 141.043h13.805v-12.595h-13.805v12.595zM703.238 230.374v12.589h13.805v-12.589h-13.805zM703.238 89.472h13.805v-12.582h-13.805v12.582zM703.238 281.939v12.576h13.805v-12.576h-13.805zM703.238 332.288v13.786h13.805v-13.786h-13.805zM703.238 383.846v12.589h13.805v-12.589h-13.805zM703.238 537.331v12.582h13.805v-12.582h-13.805zM703.238 588.89v12.595h13.805v-12.595h-13.805zM703.238 639.251v13.792h13.805v-13.792h-13.805zM703.238 690.803v12.602h13.805v-12.602h-13.805zM703.238 742.362v12.595h13.805v-12.595h-13.805zM703.238 792.73v13.786h13.805v-13.786h-13.805zM703.238 844.288v12.589h13.805v-12.589h-13.805zM703.238 895.846v12.595h13.805v-12.595h-13.805zM755.411 230.374v12.589h11.987v-12.589h-11.987zM755.411 435.398v12.602h11.987v-12.602h-11.987zM755.411 639.251v13.792h11.987v-13.792h-11.987zM755.411 844.288v12.589h11.987v-12.589h-11.987zM806.97 230.374v12.589h11.981v-12.589h-11.981zM806.97 435.398v12.602h11.981v-12.602h-11.981zM806.97 639.251v13.792h11.981v-13.792h-11.981zM806.97 844.288v12.589h11.981v-12.589h-11.981zM856.723 230.374v12.589h13.786v-12.589h-13.786zM856.723 435.398v12.602h13.786v-12.602h-13.786zM856.723 844.288v12.589h13.786v-12.589h-13.786zM908.89 178.81v13.773h11.994v-13.773h-11.994zM908.89 141.043h11.994v-12.595h-11.994v12.595zM908.89 230.374v12.589h11.994v-12.589h-11.994zM908.89 89.472h11.994v-12.582h-11.994v12.582zM908.89 281.939v12.576h11.994v-12.576h-11.994zM908.89 332.288v13.786h11.994v-13.786h-11.994zM908.89 383.846v12.589h11.994v-12.589h-11.994zM908.89 435.398v12.602h11.994v-12.602h-11.994zM908.89 485.773v13.773h11.994v-13.773h-11.994zM908.89 537.331v12.582h11.994v-12.582h-11.994zM908.89 588.89v12.595h11.994v-12.595h-11.994zM908.89 742.362v12.595h11.994v-12.595h-11.994zM908.89 792.73v13.786h11.994v-13.786h-11.994zM908.89 844.288v12.589h11.994v-12.589h-11.994zM908.89 895.846v12.595h11.994v-12.595h-11.994zM960.448 230.374v12.589h11.987v-12.589h-11.987zM960.448 435.398v12.602h11.987v-12.602h-11.987zM960.448 639.251v13.792h11.987v-13.792h-11.987zM960.448 844.288v12.589h11.987v-12.589h-11.987z" />
<glyph unicode="&#xe95f;" glyph-name="chart-pie" d="M485.76 433.178l249.254-431.763c-67.008-33.395-142.272-52.614-222.227-52.614-276.115 0-499.987 223.872-499.987 500-0.013 265.549 207.194 482.163 468.736 498.4v-498.4c0-5.376 1.408-10.746 4.224-15.622zM1011.2 476.525h-470.086v470.675c251.091-15.565 454.528-219.59 470.086-470.675zM606.541 542.547h332.998c-36.314 165.946-167.040 296.685-332.998 333.005v-333.005zM789.28 32.358c126.534 84.166 211.974 226.342 221.92 387.117h-444.262l222.342-387.117z" />
<glyph unicode="&#xe960;" glyph-name="chart-pillar" d="M704 704h-192v-640h192v640zM960 512h-192v-448h192v448zM64 0v127.994h63.994v64.013h-63.994v127.994h63.994v64h-63.994v128h63.994v64h-63.994v128h63.994v64h-63.994v128h63.994v64h-127.994v-1024h1024v64h-960zM448 384h-192v-320h192v320z" />
<glyph unicode="&#xe961;" glyph-name="chart-up" d="M88.781 960h-43.981v-1024h890.835v42.88l-846.112 2.176-0.742 978.944zM178.426 69.555h222.714v484.179l-222.714-222.605v-261.574zM445.677 69.555h222.707v439.661l-89.082-89.037-133.626 133.555v-484.179zM712.928 69.555h222.714v676.154l-222.714-222.605v-453.549zM417.894 689.888l161.229-160.275 318.387 316.634 81.69-82.099-1.971 195.853-196.646-1.024 76.48-76.666-278.029-278.707-164.32 164.87-250.458-249.504 41.824-40.602 211.814 211.52z" />
<glyph unicode="&#xe962;" glyph-name="stats-bar" d="M262.4 661.952h-213.946c-19.61 0-35.654-16.058-35.654-35.661v-641.83c0-19.61 16.045-35.661 35.654-35.661h213.946c19.603 0 35.654 16.051 35.654 35.661v641.83c0 19.603-16.051 35.661-35.654 35.661zM262.4 20.128h-213.946v285.254h213.946v-285.254zM618.97 804.576h-213.939c-19.622 0-35.661-16.045-35.661-35.654v-784.461c0-19.61 16.038-35.661 35.661-35.661h213.939c19.616 0 35.661 16.051 35.661 35.661v784.461c0 19.61-16.045 35.654-35.661 35.654zM618.97 20.128h-213.939v356.563h213.939v-356.563zM975.539 947.2h-213.939c-19.61 0-35.654-16.038-35.654-35.654v-927.078c0-19.61 16.045-35.661 35.654-35.661h213.939c19.616 0 35.661 16.051 35.661 35.661v927.078c0 19.616-16.045 35.654-35.661 35.654zM975.539 20.128h-213.939v427.878h213.939v-427.878z" />
<glyph unicode="&#xe963;" glyph-name="compass" d="M512 960c-282.784 0-512-229.222-512-512 0-282.771 229.216-512 512-512s512 229.229 512 512c0 282.778-229.229 512-512 512v0zM512 32c-229.747 0-416 186.259-416 416 0 229.754 186.253 416 416 416s416-186.246 416-416c0-229.741-186.253-416-416-416zM608.006 544l-288.006 160h-63.994v-64l159.994-288 288.006-160h64v64l-160 288zM512 384c-35.341 0-64 28.659-64 64s28.659 64 64 64 64-28.659 64-64-28.659-64-64-64z" />
<glyph unicode="&#xe964;" glyph-name="directions-bike" d="M682.675 736.73c42.234 0 76.794 34.195 76.794 76.435s-34.56 76.435-76.794 76.435c-42.464 0-76.813-34.189-76.813-76.429s34.349-76.442 76.813-76.442zM810.662 431.014c-117.76 0-213.331-95.104-213.331-212.301 0-117.203 95.571-212.314 213.331-212.314 117.754 0 213.338 95.11 213.338 212.314 0 117.19-95.584 212.301-213.338 212.301v0zM810.662 70.080c-82.554 0-149.338 66.451-149.338 148.627 0 82.157 66.784 148.614 149.338 148.614 82.56 0 149.338-66.458 149.338-148.614 0-82.176-66.778-148.627-149.338-148.627v0zM631.462 515.942h179.2v76.416h-136.538l-82.554 138.65c-12.589 21.229-35.84 35.456-62.509 35.456-20.051 0-38.189-8.064-51.2-21.235l-157.869-156.89c-13.222-13.171-21.325-31.219-21.325-51.162 0-26.758 14.291-49.254 36.256-62.413l142.938-86.208v-212.307h76.806v275.142l-96.006 70.918 98.976 98.925 73.824-105.293zM213.331 431.014c-117.76 0-213.331-95.11-213.331-212.301 0-117.203 95.571-212.314 213.331-212.314s213.331 95.11 213.331 212.314c0 117.19-95.571 212.301-213.331 212.301zM213.331 70.080c-82.56 0-149.338 66.451-149.338 148.627 0 82.157 66.778 148.614 149.338 148.614 82.554 0 149.331-66.458 149.331-148.614 0-82.176-66.778-148.627-149.331-148.627v0z" />
<glyph unicode="&#xe965;" glyph-name="directions-car" d="M905.658 845.024c-11.654 33.523-43.514 57.376-80.774 57.376h-625.779c-37.254 0-69.114-23.853-80.768-57.376l-118.336-340.224v-454.4c0-31.251 25.619-56.8 56.896-56.8h56.89c31.584 0 56.89 25.549 56.89 56.8v56.8h682.669v-56.8c0-31.251 25.6-56.8 56.89-56.8h56.89c31.578 0 56.89 25.549 56.89 56.8v454.4l-118.355 340.224zM199.104 277.6c-47.213 0-85.338 38.048-85.338 85.19 0 47.162 38.125 85.21 85.338 85.21 47.219 0 85.331-38.048 85.331-85.21 0-47.142-38.112-85.19-85.331-85.19zM824.883 277.6c-47.213 0-85.325 38.048-85.325 85.19 0 47.162 38.112 85.21 85.325 85.21s85.344-38.048 85.344-85.21c0-47.142-38.131-85.19-85.344-85.19zM113.766 561.6l85.338 255.597h625.773l85.331-255.603-796.442 0.006z" />
<glyph unicode="&#xe966;" glyph-name="directions-subway" d="M512 960c-240.435 0-435.2-26.938-435.2-215.578v-512c0-104.301 85.408-188.64 190.394-188.64l-81.587-80.851v-26.931h652.806v26.938l-81.6 80.851c105.254 0 190.387 84.352 190.387 188.64v512c0 188.634-194.752 215.571-435.2 215.571v0zM267.194 151.59c-45.165 0-81.587 36.090-81.587 80.838 0 44.736 36.422 80.838 81.587 80.838s81.6-36.102 81.6-80.838c0-44.755-36.435-80.838-81.6-80.838zM457.606 474.938h-272v269.485h271.987v-269.472l0.013-0.013zM756.813 151.59c-45.165 0-81.606 36.090-81.606 80.838 0 44.736 36.442 80.838 81.606 80.838 45.146 0 81.6-36.102 81.6-80.838 0-44.755-36.454-80.838-81.6-80.838zM838.413 474.938h-272v269.485h272v-269.485z" />
<glyph unicode="&#xe967;" glyph-name="directions-walk" d="M582.899 790.893c46.784 0 85.069 37.805 85.069 84.557 0 46.726-38.285 84.55-85.069 84.55-47.034 0-85.075-37.824-85.075-84.55 0-46.752 38.042-84.557 85.075-84.557zM588.57 499.661h230.63v84.557h-171.328l-94.515 156.416c-13.946 23.488-39.706 38.989-69.005 38.989-8.032 0-15.834-1.184-23.155-3.29l-256.397-79.373v-244.269h85.075v172.16l99.482 30.765-184.557-719.616h85.075l135.635 380.941 110.125-146.074v-234.861h85.075v300.858l-117.677 213.254 34.733 134.81 50.803-85.267z" />
<glyph unicode="&#xe968;" glyph-name="earth" d="M874.035 810.029c96.71-96.698 149.965-225.274 149.965-362.029s-53.254-265.331-149.965-362.042c-96.704-96.704-225.28-149.958-362.035-149.958-136.768 0-265.331 53.254-362.042 149.958-96.704 96.698-149.958 225.286-149.958 362.042s53.248 265.331 149.958 362.029c96.71 96.717 225.274 149.971 362.042 149.971 136.755 0 265.331-53.254 362.035-149.971v0zM828.787 131.213c63.059 63.059 104.973 141.6 122.266 227.059-13.466-19.827-26.355-27.2-34.342 17.203-8.211 72.403-74.707 26.163-116.512 51.872-44.006-29.658-142.906 57.658-126.099-40.832 25.946-44.422 140.006 59.456 83.149-34.541-36.275-65.613-132.64-210.925-120.109-286.259 1.574-109.741-112.134-22.88-151.309 13.53-26.362 72.915-8.979 200.358-77.894 236.070-74.803 3.258-139.002 10.042-168 93.677-17.44 59.827 18.573 148.902 82.688 162.643 93.843 58.957 127.366-69.062 215.379-71.43 27.334 28.602 101.818 37.67 107.994 69.741-57.741 10.202 73.267 48.557-5.523 70.387-43.469-5.12-71.482-45.075-48.371-78.963-84.243-19.635-86.944 121.901-167.91 77.261-2.061-70.586-132.224-22.886-45.037-8.576 29.952 13.101-48.858 51.014-6.278 44.134 20.922 1.126 91.334 25.811 72.282 42.4 39.2 24.346 72.147-58.285 110.534 1.882 27.712 46.266-11.622 54.803-46.349 31.36-19.584 21.914 34.566 69.267 82.33 89.728 15.923 6.829 31.123 10.534 42.746 9.485 24.070-27.789 68.557-32.602 70.88 3.341-59.584 28.531-125.28 43.616-193.293 43.616-97.626 0-190.464-31.034-267.309-88.403 20.646-9.459 32.371-21.229 12.48-36.301-15.45-46.054-78.17-107.866-133.229-99.11-28.582-49.299-47.411-103.616-55.456-160.531 46.112-15.258 56.749-45.446 46.835-55.546-23.501-20.48-37.933-49.523-45.376-81.325 15.008-91.834 58.17-176.474 125.274-243.578 84.614-84.608 197.12-131.206 316.781-131.206s232.16 46.598 316.781 131.213v0z" />
<glyph unicode="&#xe969;" glyph-name="explore" d="M512 928c-265.101 0-480-214.925-480-480s214.899-480 480-480 480 214.925 480 480c0 265.107-214.918 480-480 480zM748.8 204.8h-56.794l-271.603 151.597-151.603 271.597v56.806h63.2l268.41-148.403 148.39-268.39v-63.206zM572 448c0-33.137-26.863-60-60-60s-60 26.863-60 60c0 33.137 26.863 60 60 60s60-26.863 60-60z" />
<glyph unicode="&#xe96a;" glyph-name="globe" d="M512 934.4c-268.621 0-486.4-217.773-486.4-486.406 0-268.621 217.779-486.394 486.4-486.394 268.634 0 486.4 217.773 486.4 486.394 0 268.634-217.766 486.406-486.4 486.406zM787.226 285.875c8.672 40.986 14.189 84.493 15.962 129.696h129.146c-3.373-44.787-13.792-88.269-31.085-129.696h-114.022zM236.774 610.125c-8.672-40.986-14.189-84.493-15.949-129.696h-129.158c3.373 44.787 13.811 88.269 31.085 129.696h114.022zM720.8 610.125c9.741-41.491 15.603-84.973 17.498-129.696h-193.862v129.696h176.365zM544.435 675.002v189.818c14.778-4.294 29.421-11.52 43.795-21.664 26.938-18.976 52.723-48.243 74.534-84.589 15.091-25.146 28.128-53.114 39.008-83.584l-157.338 0.019zM361.261 758.566c21.792 36.365 47.571 65.613 74.509 84.589 14.387 10.144 29.018 17.37 43.808 21.664v-189.818h-157.318c10.854 30.458 23.91 58.426 39.002 83.565v0zM479.578 610.125v-129.696h-193.875c1.926 44.717 7.757 88.198 17.53 129.696h176.346zM122.758 285.875c-17.274 41.427-27.712 84.909-31.085 129.696h129.158c1.76-45.203 7.277-88.704 15.949-129.696h-114.022zM285.702 415.571h193.875v-129.696h-176.346c-9.747 41.51-15.61 84.973-17.53 129.696v0zM479.578 221.011v-189.83c-14.79 4.314-29.421 11.52-43.808 21.664-26.938 18.976-52.71 48.243-74.509 84.589-15.091 25.146-28.147 53.12-39.034 83.584l157.35-0.006zM662.752 137.434c-21.805-36.346-47.584-65.613-74.522-84.589-14.374-10.144-29.018-17.35-43.808-21.664v189.83h157.344c-10.88-30.464-23.91-58.438-39.014-83.578v0zM544.435 285.875v129.696h193.862c-1.901-44.717-7.757-88.179-17.498-129.696h-176.365zM803.187 480.429c-1.773 45.203-7.29 88.704-15.962 129.696h114.016c17.299-41.427 27.712-84.909 31.085-129.696h-129.139zM867.354 675.002h-97.203c-18.893 59.526-44.96 111.75-76.326 153.427 43.13-20.602 82.144-48.243 116.25-82.355 21.779-21.741 40.896-45.53 57.274-71.078v0.006zM213.92 746.067c34.106 34.112 73.152 61.754 116.25 82.355-31.36-41.677-57.434-93.901-76.326-153.427h-97.178c16.358 25.542 35.494 49.331 57.254 71.072v0zM156.666 221.011h97.178c18.893-59.539 44.96-111.75 76.326-153.44-43.098 20.621-82.144 48.25-116.25 82.355-21.76 21.76-40.896 45.549-57.254 71.085zM810.080 149.933c-34.106-34.106-73.152-61.734-116.25-82.355 31.36 41.69 57.434 93.901 76.326 153.44h97.203c-16.384-25.542-35.494-49.331-57.28-71.085v0z" />
<glyph unicode="&#xe96b;" glyph-name="gps-fixed" d="M512 634.176c-102.867 0-186.189-83.302-186.189-186.176 0-102.854 83.322-186.182 186.189-186.182s186.189 83.328 186.189 186.182c0 102.874-83.322 186.189-186.189 186.189v-0.013zM928.102 494.541c-21.389 194.099-175.456 348.173-369.555 369.574v95.885h-93.088v-95.878c-194.099-21.421-348.154-175.475-369.568-369.574h-95.891v-93.088h95.885c21.414-194.099 175.469-348.166 369.568-369.568v-95.891h93.088v95.885c194.099 21.402 348.166 175.469 369.555 369.568h95.904v93.088h-95.898zM512 122.189c-179.898 0-325.811 145.914-325.811 325.811s145.914 325.818 325.811 325.818 325.811-145.92 325.811-325.818-145.914-325.811-325.811-325.811v0z" />
<glyph unicode="&#xe96c;" glyph-name="gps-fixed-no" d="M928.115 494.541c-21.414 194.099-175.482 348.154-369.568 369.568v95.891h-93.088v-95.885c-194.099-21.414-348.154-175.469-369.568-369.568h-95.891v-93.088h95.885c21.414-194.099 175.469-348.154 369.568-369.568v-95.891h93.088v95.885c194.086 21.414 348.154 175.469 369.568 369.568h95.891v93.088h-95.885zM512 122.189c-179.898 0-325.811 145.914-325.811 325.811s145.914 325.811 325.811 325.811 325.811-145.914 325.811-325.811-145.914-325.811-325.811-325.811v0z" />
<glyph unicode="&#xe96d;" glyph-name="gps-off" d="M928.115 494.541c-21.408 194.099-175.475 348.154-369.568 369.568v95.891h-93.088v-95.885c-52.595-5.818-101.939-21.645-146.848-45.158l69.805-69.811c38.182 15.821 79.834 24.666 123.584 24.666 179.898 0 325.811-145.92 325.811-325.811 0-43.75-8.832-85.414-24.429-123.578l69.818-69.824c23.507 44.915 39.098 94.259 44.915 146.848h95.885v93.088l-95.885 0.006zM93.094 807.565l94.72-94.726c-49.805-60.973-82.854-135.898-91.923-218.291h-95.891v-93.088h95.885c21.414-194.099 175.475-348.154 369.568-369.568v-95.891h93.088v95.885c82.387 9.069 157.325 42.349 218.291 92.16l94.72-94.957 59.347 59.11-778.458 778.707-59.347-59.341zM710.509 190.138c-54.918-42.349-123.571-67.949-198.509-67.949-179.898 0-325.811 145.907-325.811 325.805 0 74.938 25.6 143.597 67.949 198.515l456.371-456.371z" />
<glyph unicode="&#xe96e;" glyph-name="location" d="M511.994 960c-176.717 0-319.994-143.27-319.994-319.994 0-320 319.994-704.006 319.994-704.006s320.006 384.006 320.006 704.006c0 176.723-143.27 319.994-320.006 319.994zM511.994 448c-106.029 0-192 85.965-192 192.006 0 106.022 85.971 192 192 192 106.048 0 191.994-85.978 191.994-192 0-106.042-85.946-192.006-191.994-192.006z" />
<glyph unicode="&#xe96f;" glyph-name="location-line" d="M512.032 776.128c-105.888 0-191.994-86.112-191.994-192s86.106-192 191.994-192c105.894 0 192.006 86.144 192.006 192 0 105.85-86.112 192-192.006 192zM512.032 443.328c-77.664 0-140.8 63.123-140.8 140.8 0 77.67 63.136 140.8 140.8 140.8 77.677 0 140.8-63.13 140.8-140.8 0-77.677-63.123-140.8-140.8-140.8zM511.968 960c-211.757 0-383.968-170.112-383.968-384.038 0-223.994 192.013-453.152 332-614.208 0.518-0.64 22.976-25.754 50.752-25.754 0.064 0 2.342 0 2.47 0 27.744 0 50.24 25.12 50.758 25.754 140.038 161.056 332.019 390.176 332.019 614.208 0 213.926-172.23 384.038-384.032 384.038zM515.718 3.744c-0.672-0.646-2.624-2.048-4.314-3.136-0.326 0.864-2.688 2.739-4.134 4.256-117.274 134.938-315.27 362.688-315.27 571.098 0 176.448 143.565 320.038 319.968 320.038 176.499 0 320.038-143.59 320.038-320.070 0-208.378-198.003-436.128-316.288-572.186z" />
<glyph unicode="&#xe970;" glyph-name="location-map" d="M960 898.65v-907.584h-2.074c-2.093-12.576-12.518-23.066-27.091-23.066v0h-837.664c-16.666 0-29.171 12.589-29.171 29.357v0 0 593.178l335.494 337.466h531.334c16.666 0 29.171-12.576 29.171-29.35v0zM699.546 821.107l-39.603-69.171 193.786-192.832v262.003h-154.182zM399.494 561.197h-229.229v-64.979l179.206-178.176 289.626 503.066h-210.438v-230.573c0-16.755-12.486-29.338-29.165-29.338v0zM170.266 74.906h39.603l110.445 194.931-150.048 150.925v-345.856zM270.291 74.906h583.437v406.656l-220.864 222.176-362.573-628.832zM639.098 496.218c70.861 0 129.21-58.675 129.21-129.971 0-29.344-8.365-56.57-25.024-77.542l-81.261-140.429c0-2.106-2.080-4.198-4.154-6.285v0 0c-4.173-4.198-10.426-8.384-16.678-8.384-8.32 0-16.659 2.086-20.826 8.384v0 4.179l-83.341 144.646c-14.592 20.947-25.024 46.093-25.024 75.437 0 71.29 56.25 129.965 127.098 129.965zM639.098 301.267c35.424 0 62.515 27.264 62.515 62.893 0 35.635-27.085 64.973-62.515 64.973-35.437 0-62.49-29.338-62.49-64.973 0.006-35.629 27.053-62.893 62.49-62.893z" />
<glyph unicode="&#xe971;" glyph-name="location-off" d="M563.904 729.6c71.629 0 129.786-57.35 129.786-128.013 0-37.626-16.864-71.149-43.078-94.726l188.416-185.85c50.618 95.238 88.256 194.31 88.256 280.576 0.006 197.901-162.746 358.413-363.379 358.413-102.784 0-195.437-42.266-261.376-109.837l165.35-163.066c23.616 25.862 57.875 42.502 96.026 42.502v0zM791.027 238.074l-680.294 670.726-65.933-65.286 165.088-162.81c-5.997-25.338-9.357-51.712-9.357-79.11 0-268.794 363.373-665.594 363.373-665.594s86.707 94.726 175.206 222.714l173.894-171.514 66.195 65.286-188.173 185.587z" />
<glyph unicode="&#xe972;" glyph-name="location-on" d="M512.006 960c-176.736 0-320.006-143.258-320.006-320 0-319.994 320.006-704 320.006-704s319.994 384.006 319.994 704c0 176.742-143.27 320-319.994 320zM512.006 444c-108.25 0-196.006 87.757-196.006 196 0 108.25 87.757 196.006 196.006 196.006 108.243 0 196-87.757 196-196.006 0-108.243-87.757-196-196-196zM388 640c0 68.486 55.52 124.006 124.006 124.006 68.48 0 124-55.52 124-124.006 0-68.48-55.52-124-124-124s-124.006 55.52-124.006 124z" />
<glyph unicode="&#xe973;" glyph-name="map" d="M0 763.43l320 126.17v-757.037l-320-126.163v757.030zM704 763.43v-757.030l-320 105.146v757.030l320-105.146zM1024 889.6v-757.037l-256-100.928v757.030l256 100.934z" />
</font>
</defs>
</svg>
